<?xml version="1.0" encoding="utf-8" standalone="no"?>
<!DOCTYPE svg PUBLIC "-//W3C//DTD SVG 1.1//EN"
  "http://www.w3.org/Graphics/SVG/1.1/DTD/svg11.dtd">
<svg xmlns:xlink="http://www.w3.org/1999/xlink" width="1288.43375pt" height="423.397899pt" viewBox="0 0 1288.43375 423.397899" xmlns="http://www.w3.org/2000/svg" version="1.1">
 <metadata>
  <rdf:RDF xmlns:dc="http://purl.org/dc/elements/1.1/" xmlns:cc="http://creativecommons.org/ns#" xmlns:rdf="http://www.w3.org/1999/02/22-rdf-syntax-ns#">
   <cc:Work>
    <dc:type rdf:resource="http://purl.org/dc/dcmitype/StillImage"/>
    <dc:date>2026-05-06T10:20:34.574438</dc:date>
    <dc:format>image/svg+xml</dc:format>
    <dc:creator>
     <cc:Agent>
      <dc:title>Matplotlib v3.10.1, https://matplotlib.org/</dc:title>
     </cc:Agent>
    </dc:creator>
   </cc:Work>
  </rdf:RDF>
 </metadata>
 <defs>
  <style type="text/css">*{stroke-linejoin: round; stroke-linecap: butt}</style>
 </defs>
 <g id="figure_1">
  <g id="patch_1">
   <path d="M 0 423.397899 
L 1288.43375 423.397899 
L 1288.43375 0 
L 0 0 
z
" style="fill: #ffffff"/>
  </g>
  <g id="axes_1">
   <g id="patch_2">
    <path d="M 50.14375 374.901281 
L 1281.23375 374.901281 
L 1281.23375 22.318125 
L 50.14375 22.318125 
z
" style="fill: #ffffff"/>
   </g>
   <g id="FillBetweenPolyCollection_1">
    <path d="M 131.830707 358.874774 
L 129.033749 358.874774 
L 129.077432 355.688511 
L 129.236523 352.502249 
L 129.456997 349.315986 
L 129.679063 346.129724 
L 129.861163 342.943461 
L 129.989109 339.757199 
L 130.069971 336.570936 
L 130.119402 333.384673 
L 130.151461 330.198411 
L 130.174601 327.012148 
L 130.192319 323.825886 
L 130.20535 320.639623 
L 130.213477 317.453361 
L 130.216646 314.267098 
L 130.215691 311.080836 
L 130.21274 307.894573 
L 130.211106 304.708311 
L 130.214538 301.522048 
L 130.226042 298.335786 
L 130.246748 295.149523 
L 130.275351 291.96326 
L 130.308452 288.776998 
L 130.34168 285.590735 
L 130.371106 282.404473 
L 130.394305 279.21821 
L 130.41067 276.031948 
L 130.421031 272.845685 
L 130.426927 269.659423 
L 130.429945 266.47316 
L 130.431335 263.286898 
L 130.431912 260.100635 
L 130.432127 256.914373 
L 130.432199 253.72811 
L 130.432221 250.541847 
L 130.432226 247.355585 
L 130.432228 244.169322 
L 130.432228 240.98306 
L 130.432228 237.796797 
L 130.432228 234.610535 
L 130.432228 231.424272 
L 130.432228 228.23801 
L 130.432228 225.051747 
L 130.432228 221.865485 
L 130.432228 218.679222 
L 130.432228 215.49296 
L 130.432228 212.306697 
L 130.432225 209.120434 
L 130.432217 205.934172 
L 130.432186 202.747909 
L 130.432091 199.561647 
L 130.431824 196.375384 
L 130.431148 193.189122 
L 130.429609 190.002859 
L 130.426454 186.816597 
L 130.420626 183.630334 
L 130.410913 180.444072 
L 130.396271 177.257809 
L 130.376213 174.071547 
L 130.351044 170.885284 
L 130.321757 167.699021 
L 130.289597 164.512759 
L 130.255562 161.326496 
L 130.220133 158.140234 
L 130.183406 154.953971 
L 130.145522 151.767709 
L 130.107247 148.581446 
L 130.070567 145.395184 
L 130.039026 142.208921 
L 130.017235 139.022659 
L 130.008855 135.836396 
L 130.012711 132.650134 
L 130.017496 129.463871 
L 129.996419 126.277608 
L 129.903796 123.091346 
L 129.67587 119.905083 
L 129.237396 116.718821 
L 128.513063 113.532558 
L 127.439367 110.346296 
L 125.971485 107.160033 
L 124.084243 103.973771 
L 121.774474 100.787508 
L 119.075635 97.601246 
L 116.08727 94.414983 
L 113.005086 91.22872 
L 110.125917 88.042458 
L 107.808096 84.856195 
L 106.390935 81.669933 
L 106.102386 78.48367 
L 106.994189 75.297408 
L 108.931414 72.111145 
L 111.636479 68.924883 
L 114.763871 65.73862 
L 117.974706 62.552358 
L 120.990083 59.366095 
L 123.617816 56.179833 
L 125.757293 52.99357 
L 127.389376 49.807307 
L 128.556779 46.621045 
L 129.339675 43.434782 
L 131.524781 43.434782 
L 131.524781 43.434782 
L 132.307677 46.621045 
L 133.47508 49.807307 
L 135.107163 52.99357 
L 137.24664 56.179833 
L 139.874373 59.366095 
L 142.88975 62.552358 
L 146.100585 65.73862 
L 149.227978 68.924883 
L 151.933043 72.111145 
L 153.870267 75.297408 
L 154.76207 78.48367 
L 154.473522 81.669933 
L 153.05636 84.856195 
L 150.738539 88.042458 
L 147.85937 91.22872 
L 144.777187 94.414983 
L 141.788821 97.601246 
L 139.089982 100.787508 
L 136.780213 103.973771 
L 134.892972 107.160033 
L 133.42509 110.346296 
L 132.351393 113.532558 
L 131.62706 116.718821 
L 131.188587 119.905083 
L 130.960661 123.091346 
L 130.868038 126.277608 
L 130.846961 129.463871 
L 130.851746 132.650134 
L 130.855602 135.836396 
L 130.847222 139.022659 
L 130.825431 142.208921 
L 130.793889 145.395184 
L 130.75721 148.581446 
L 130.718934 151.767709 
L 130.68105 154.953971 
L 130.644324 158.140234 
L 130.608895 161.326496 
L 130.574859 164.512759 
L 130.5427 167.699021 
L 130.513413 170.885284 
L 130.488244 174.071547 
L 130.468186 177.257809 
L 130.453544 180.444072 
L 130.443831 183.630334 
L 130.438003 186.816597 
L 130.434848 190.002859 
L 130.433309 193.189122 
L 130.432633 196.375384 
L 130.432366 199.561647 
L 130.43227 202.747909 
L 130.43224 205.934172 
L 130.432231 209.120434 
L 130.432229 212.306697 
L 130.432228 215.49296 
L 130.432228 218.679222 
L 130.432228 221.865485 
L 130.432228 225.051747 
L 130.432228 228.23801 
L 130.432228 231.424272 
L 130.432228 234.610535 
L 130.432228 237.796797 
L 130.432228 240.98306 
L 130.432229 244.169322 
L 130.43223 247.355585 
L 130.432236 250.541847 
L 130.432258 253.72811 
L 130.43233 256.914373 
L 130.432545 260.100635 
L 130.433121 263.286898 
L 130.434512 266.47316 
L 130.43753 269.659423 
L 130.443426 272.845685 
L 130.453786 276.031948 
L 130.470152 279.21821 
L 130.493351 282.404473 
L 130.522777 285.590735 
L 130.556004 288.776998 
L 130.589105 291.96326 
L 130.617709 295.149523 
L 130.638415 298.335786 
L 130.649919 301.522048 
L 130.653351 304.708311 
L 130.651717 307.894573 
L 130.648766 311.080836 
L 130.647811 314.267098 
L 130.65098 317.453361 
L 130.659107 320.639623 
L 130.672138 323.825886 
L 130.689856 327.012148 
L 130.712996 330.198411 
L 130.745054 333.384673 
L 130.794486 336.570936 
L 130.875348 339.757199 
L 131.003293 342.943461 
L 131.185394 346.129724 
L 131.40746 349.315986 
L 131.627934 352.502249 
L 131.787024 355.688511 
L 131.830707 358.874774 
z
" clip-path="url(#pf82febd598)" style="fill: #4682b4; fill-opacity: 0.7"/>
   </g>
   <g id="FillBetweenPolyCollection_2">
    <path d="M 228.569403 358.874774 
L 226.933788 358.874774 
L 226.9487 355.688446 
L 227.116937 352.502118 
L 227.339837 349.315789 
L 227.527438 346.129461 
L 227.647183 342.943133 
L 227.709582 339.756805 
L 227.737056 336.570477 
L 227.747333 333.384149 
L 227.750557 330.197821 
L 227.751389 327.011493 
L 227.751563 323.825164 
L 227.751592 320.638836 
L 227.751595 317.452508 
L 227.751596 314.26618 
L 227.751596 311.079852 
L 227.751596 307.893524 
L 227.751596 304.707196 
L 227.751596 301.520868 
L 227.751596 298.334539 
L 227.751596 295.148211 
L 227.751596 291.961883 
L 227.751596 288.775555 
L 227.751596 285.589227 
L 227.751596 282.402899 
L 227.751596 279.216571 
L 227.751596 276.030243 
L 227.751596 272.843915 
L 227.751596 269.657586 
L 227.751596 266.471258 
L 227.751596 263.28493 
L 227.751596 260.098602 
L 227.751596 256.912274 
L 227.751596 253.725946 
L 227.751596 250.539618 
L 227.751596 247.35329 
L 227.751596 244.166961 
L 227.751596 240.980633 
L 227.751596 237.794305 
L 227.751596 234.607977 
L 227.751596 231.421649 
L 227.751596 228.235321 
L 227.751596 225.048993 
L 227.751596 221.862665 
L 227.751596 218.676336 
L 227.751596 215.490008 
L 227.751596 212.30368 
L 227.751596 209.117352 
L 227.751596 205.931024 
L 227.751596 202.744696 
L 227.751593 199.558368 
L 227.751573 196.37204 
L 227.751437 193.185712 
L 227.750738 189.999383 
L 227.747915 186.813055 
L 227.739038 183.626727 
L 227.7173 180.440399 
L 227.675729 177.254071 
L 227.612766 174.067743 
L 227.534395 170.881415 
L 227.449393 167.695087 
L 227.367086 164.508758 
L 227.30356 161.32243 
L 227.279839 158.136102 
L 227.30184 154.949774 
L 227.348848 151.763446 
L 227.393957 148.577118 
L 227.431715 145.39079 
L 227.47607 142.204462 
L 227.535489 139.018133 
L 227.600999 135.831805 
L 227.657542 132.645477 
L 227.697111 129.459149 
L 227.718127 126.272821 
L 227.715551 123.086493 
L 227.667991 119.900165 
L 227.521618 116.713837 
L 227.178579 113.527509 
L 226.516095 110.34118 
L 225.447248 107.154852 
L 223.958006 103.968524 
L 222.033819 100.782196 
L 219.556266 97.595868 
L 216.387068 94.40954 
L 212.642926 91.223212 
L 208.852524 88.036884 
L 205.759443 84.850555 
L 203.912266 81.664227 
L 203.421754 78.477899 
L 204.09198 75.291571 
L 205.709783 72.105243 
L 208.143892 68.918915 
L 211.225977 65.732587 
L 214.650434 62.546259 
L 218.027043 59.35993 
L 221.015522 56.173602 
L 223.418105 52.987274 
L 225.18411 49.800946 
L 226.366706 46.614618 
L 227.079838 43.42829 
L 228.423354 43.42829 
L 228.423354 43.42829 
L 229.136486 46.614618 
L 230.319082 49.800946 
L 232.085086 52.987274 
L 234.48767 56.173602 
L 237.476148 59.35993 
L 240.852757 62.546259 
L 244.277215 65.732587 
L 247.3593 68.918915 
L 249.793409 72.105243 
L 251.411212 75.291571 
L 252.081438 78.477899 
L 251.590925 81.664227 
L 249.743749 84.850555 
L 246.650668 88.036884 
L 242.860266 91.223212 
L 239.116124 94.40954 
L 235.946925 97.595868 
L 233.469373 100.782196 
L 231.545186 103.968524 
L 230.055944 107.154852 
L 228.987097 110.34118 
L 228.324613 113.527509 
L 227.981573 116.713837 
L 227.835201 119.900165 
L 227.787641 123.086493 
L 227.785065 126.272821 
L 227.80608 129.459149 
L 227.84565 132.645477 
L 227.902192 135.831805 
L 227.967702 139.018133 
L 228.027122 142.204462 
L 228.071477 145.39079 
L 228.109235 148.577118 
L 228.154344 151.763446 
L 228.201351 154.949774 
L 228.223352 158.136102 
L 228.199631 161.32243 
L 228.136106 164.508758 
L 228.053799 167.695087 
L 227.968797 170.881415 
L 227.890426 174.067743 
L 227.827462 177.254071 
L 227.785892 180.440399 
L 227.764153 183.626727 
L 227.755276 186.813055 
L 227.752454 189.999383 
L 227.751755 193.185712 
L 227.751619 196.37204 
L 227.751599 199.558368 
L 227.751596 202.744696 
L 227.751596 205.931024 
L 227.751596 209.117352 
L 227.751596 212.30368 
L 227.751596 215.490008 
L 227.751596 218.676336 
L 227.751596 221.862665 
L 227.751596 225.048993 
L 227.751596 228.235321 
L 227.751596 231.421649 
L 227.751596 234.607977 
L 227.751596 237.794305 
L 227.751596 240.980633 
L 227.751596 244.166961 
L 227.751596 247.35329 
L 227.751596 250.539618 
L 227.751596 253.725946 
L 227.751596 256.912274 
L 227.751596 260.098602 
L 227.751596 263.28493 
L 227.751596 266.471258 
L 227.751596 269.657586 
L 227.751596 272.843915 
L 227.751596 276.030243 
L 227.751596 279.216571 
L 227.751596 282.402899 
L 227.751596 285.589227 
L 227.751596 288.775555 
L 227.751596 291.961883 
L 227.751596 295.148211 
L 227.751596 298.334539 
L 227.751596 301.520868 
L 227.751596 304.707196 
L 227.751596 307.893524 
L 227.751596 311.079852 
L 227.751596 314.26618 
L 227.751596 317.452508 
L 227.7516 320.638836 
L 227.751629 323.825164 
L 227.751802 327.011493 
L 227.752634 330.197821 
L 227.755858 333.384149 
L 227.766136 336.570477 
L 227.793609 339.756805 
L 227.856008 342.943133 
L 227.975754 346.129461 
L 228.163354 349.315789 
L 228.386254 352.502118 
L 228.554491 355.688446 
L 228.569403 358.874774 
z
" clip-path="url(#pf82febd598)" style="fill: #4682b4; fill-opacity: 0.7"/>
   </g>
   <g id="FillBetweenPolyCollection_3">
    <path d="M 325.109027 184.193021 
L 325.0329 184.193021 
L 325.010324 182.7543 
L 324.986354 181.31558 
L 324.968282 179.87686 
L 324.959302 178.438139 
L 324.953828 176.999419 
L 324.949932 175.560699 
L 324.957476 174.121978 
L 324.980719 172.683258 
L 325.004951 171.244538 
L 325.011287 169.805817 
L 324.991681 168.367097 
L 324.942478 166.928377 
L 324.852019 165.489656 
L 324.706278 164.050936 
L 324.527176 162.612216 
L 324.397762 161.173495 
L 324.393273 159.734775 
L 324.486765 158.296055 
L 324.588743 156.857334 
L 324.658605 155.418614 
L 324.707796 153.979894 
L 324.736566 152.541173 
L 324.739314 151.102453 
L 324.740931 149.663733 
L 324.774289 148.225012 
L 324.836402 146.786292 
L 324.89711 145.347572 
L 324.939323 143.908851 
L 324.968256 142.470131 
L 324.989937 141.031411 
L 325.002047 139.59269 
L 325.004619 138.15397 
L 325.004648 136.71525 
L 325.008509 135.276529 
L 325.017069 133.837809 
L 325.026541 132.399089 
L 325.031196 130.960368 
L 325.029798 129.521648 
L 325.028325 128.082928 
L 325.030545 126.644207 
L 325.030885 125.205487 
L 325.021515 123.766767 
L 325.000264 122.328046 
L 324.97101 120.889326 
L 324.940021 119.450606 
L 324.904844 118.011885 
L 324.844207 116.573165 
L 324.729932 115.134445 
L 324.556108 113.695724 
L 324.34825 112.257004 
L 324.124837 110.818284 
L 323.848728 109.379563 
L 323.431595 107.940843 
L 322.773668 106.502123 
L 321.808956 105.063402 
L 320.594226 103.624682 
L 319.354776 102.185962 
L 318.318964 100.747241 
L 317.500483 99.308521 
L 316.736262 97.869801 
L 315.870185 96.43108 
L 314.806153 94.99236 
L 313.499144 93.55364 
L 311.96304 92.114919 
L 310.183212 90.676199 
L 308.09942 89.237479 
L 305.811804 87.798758 
L 303.652607 86.360038 
L 301.970902 84.921318 
L 300.980404 83.482597 
L 300.741122 82.043877 
L 301.11742 80.605157 
L 301.86065 79.166436 
L 302.856606 77.727716 
L 304.135692 76.288996 
L 305.624771 74.850275 
L 307.156463 73.411555 
L 308.649201 71.972835 
L 310.068752 70.534114 
L 311.407896 69.095394 
L 312.763127 67.656673 
L 314.209889 66.217953 
L 315.656984 64.779233 
L 316.956316 63.340512 
L 318.081241 61.901792 
L 319.138324 60.463072 
L 320.220467 59.024351 
L 321.286878 57.585631 
L 322.223837 56.146911 
L 322.981023 54.70819 
L 323.589694 53.26947 
L 324.07947 51.83075 
L 324.441609 50.392029 
L 324.672911 48.953309 
L 324.808491 47.514589 
L 324.896531 46.075868 
L 324.962888 44.637148 
L 325.010444 43.198428 
L 325.039198 41.759707 
L 325.102729 41.759707 
L 325.102729 41.759707 
L 325.131483 43.198428 
L 325.179039 44.637148 
L 325.245396 46.075868 
L 325.333436 47.514589 
L 325.469016 48.953309 
L 325.700318 50.392029 
L 326.062457 51.83075 
L 326.552232 53.26947 
L 327.160904 54.70819 
L 327.91809 56.146911 
L 328.855049 57.585631 
L 329.921459 59.024351 
L 331.003603 60.463072 
L 332.060686 61.901792 
L 333.185611 63.340512 
L 334.484942 64.779233 
L 335.932038 66.217953 
L 337.3788 67.656673 
L 338.734031 69.095394 
L 340.073175 70.534114 
L 341.492726 71.972835 
L 342.985464 73.411555 
L 344.517156 74.850275 
L 346.006235 76.288996 
L 347.285321 77.727716 
L 348.281277 79.166436 
L 349.024507 80.605157 
L 349.400805 82.043877 
L 349.161522 83.482597 
L 348.171025 84.921318 
L 346.48932 86.360038 
L 344.330123 87.798758 
L 342.042507 89.237479 
L 339.958715 90.676199 
L 338.178887 92.114919 
L 336.642783 93.55364 
L 335.335774 94.99236 
L 334.271742 96.43108 
L 333.405665 97.869801 
L 332.641444 99.308521 
L 331.822963 100.747241 
L 330.787151 102.185962 
L 329.547701 103.624682 
L 328.332971 105.063402 
L 327.368259 106.502123 
L 326.710331 107.940843 
L 326.293199 109.379563 
L 326.01709 110.818284 
L 325.793677 112.257004 
L 325.585819 113.695724 
L 325.411995 115.134445 
L 325.29772 116.573165 
L 325.237082 118.011885 
L 325.201906 119.450606 
L 325.170917 120.889326 
L 325.141663 122.328046 
L 325.120412 123.766767 
L 325.111042 125.205487 
L 325.111382 126.644207 
L 325.113602 128.082928 
L 325.112129 129.521648 
L 325.11073 130.960368 
L 325.115385 132.399089 
L 325.124858 133.837809 
L 325.133418 135.276529 
L 325.137279 136.71525 
L 325.137308 138.15397 
L 325.13988 139.59269 
L 325.15199 141.031411 
L 325.173671 142.470131 
L 325.202604 143.908851 
L 325.244817 145.347572 
L 325.305525 146.786292 
L 325.367637 148.225012 
L 325.400996 149.663733 
L 325.402613 151.102453 
L 325.405361 152.541173 
L 325.434131 153.979894 
L 325.483322 155.418614 
L 325.553184 156.857334 
L 325.655162 158.296055 
L 325.748654 159.734775 
L 325.744165 161.173495 
L 325.614751 162.612216 
L 325.435649 164.050936 
L 325.289908 165.489656 
L 325.199449 166.928377 
L 325.150246 168.367097 
L 325.130639 169.805817 
L 325.136976 171.244538 
L 325.161208 172.683258 
L 325.18445 174.121978 
L 325.191995 175.560699 
L 325.188099 176.999419 
L 325.182625 178.438139 
L 325.173645 179.87686 
L 325.155573 181.31558 
L 325.131603 182.7543 
L 325.109027 184.193021 
z
" clip-path="url(#pf82febd598)" style="fill: #4682b4; fill-opacity: 0.7"/>
   </g>
   <g id="FillBetweenPolyCollection_4">
    <path d="M 422.406612 129.941368 
L 422.37405 129.941368 
L 422.374729 129.050382 
L 422.376355 128.159395 
L 422.376103 127.268409 
L 422.372473 126.377423 
L 422.366502 125.486437 
L 422.360583 124.595451 
L 422.355762 123.704465 
L 422.349689 122.813478 
L 422.337298 121.922492 
L 422.314274 121.031506 
L 422.280442 120.14052 
L 422.239709 119.249534 
L 422.196562 118.358548 
L 422.152514 117.467561 
L 422.105156 116.576575 
L 422.049172 115.685589 
L 421.977342 114.794603 
L 421.882041 113.903617 
L 421.759212 113.012631 
L 421.611961 112.121644 
L 421.446934 111.230658 
L 421.265106 110.339672 
L 421.057863 109.448686 
L 420.808849 108.5577 
L 420.490581 107.666714 
L 420.063033 106.775727 
L 419.498493 105.884741 
L 418.824987 104.993755 
L 418.137848 104.102769 
L 417.550139 103.211783 
L 417.119695 102.320797 
L 416.819884 101.42981 
L 416.575942 100.538824 
L 416.31737 99.647838 
L 415.987076 98.756852 
L 415.516823 97.865866 
L 414.830758 96.97488 
L 413.898437 96.083893 
L 412.776516 95.192907 
L 411.568171 94.301921 
L 410.332005 93.410935 
L 409.060675 92.519949 
L 407.76594 91.628963 
L 406.550536 90.737976 
L 405.563068 89.84699 
L 404.889131 88.956004 
L 404.488383 88.065018 
L 404.211087 87.174032 
L 403.869704 86.283046 
L 403.335676 85.392059 
L 402.613806 84.501073 
L 401.83392 83.610087 
L 401.151725 82.719101 
L 400.635888 81.828115 
L 400.238648 80.937129 
L 399.862087 80.046142 
L 399.433915 79.155156 
L 398.934454 78.26417 
L 398.419671 77.373184 
L 398.060489 76.482198 
L 398.104301 75.591212 
L 398.721158 74.700225 
L 399.878339 73.809239 
L 401.370318 72.918253 
L 402.935866 72.027267 
L 404.344351 71.136281 
L 405.451697 70.245295 
L 406.261542 69.354308 
L 406.943056 68.463322 
L 407.735989 67.572336 
L 408.781046 66.68135 
L 410.021349 65.790364 
L 411.275291 64.899378 
L 412.405166 64.008391 
L 413.412209 63.117405 
L 414.389807 62.226419 
L 415.41373 61.335433 
L 416.477339 60.444447 
L 417.507002 59.553461 
L 418.419148 58.662474 
L 419.164824 57.771488 
L 419.739509 56.880502 
L 420.170114 55.989516 
L 420.499146 55.09853 
L 420.772316 54.207544 
L 421.024966 53.316557 
L 421.270039 52.425571 
L 421.499371 51.534585 
L 421.699426 50.643599 
L 421.865759 49.752613 
L 422.00349 48.861627 
L 422.118153 47.97064 
L 422.209559 47.079654 
L 422.274443 46.188668 
L 422.312795 45.297682 
L 422.330354 44.406696 
L 422.336154 43.51571 
L 422.338941 42.624723 
L 422.344625 41.733737 
L 422.436037 41.733737 
L 422.436037 41.733737 
L 422.441721 42.624723 
L 422.444508 43.51571 
L 422.450308 44.406696 
L 422.467867 45.297682 
L 422.506219 46.188668 
L 422.571103 47.079654 
L 422.662509 47.97064 
L 422.777172 48.861627 
L 422.914903 49.752613 
L 423.081236 50.643599 
L 423.281291 51.534585 
L 423.510623 52.425571 
L 423.755696 53.316557 
L 424.008346 54.207544 
L 424.281516 55.09853 
L 424.610548 55.989516 
L 425.041153 56.880502 
L 425.615838 57.771488 
L 426.361514 58.662474 
L 427.27366 59.553461 
L 428.303323 60.444447 
L 429.366932 61.335433 
L 430.390855 62.226419 
L 431.368453 63.117405 
L 432.375496 64.008391 
L 433.505371 64.899378 
L 434.759313 65.790364 
L 435.999616 66.68135 
L 437.044673 67.572336 
L 437.837606 68.463322 
L 438.51912 69.354308 
L 439.328965 70.245295 
L 440.436311 71.136281 
L 441.844796 72.027267 
L 443.410344 72.918253 
L 444.902323 73.809239 
L 446.059505 74.700225 
L 446.676361 75.591212 
L 446.720173 76.482198 
L 446.360991 77.373184 
L 445.846208 78.26417 
L 445.346747 79.155156 
L 444.918575 80.046142 
L 444.542014 80.937129 
L 444.144774 81.828115 
L 443.628937 82.719101 
L 442.946743 83.610087 
L 442.166856 84.501073 
L 441.444986 85.392059 
L 440.910958 86.283046 
L 440.569575 87.174032 
L 440.29228 88.065018 
L 439.891531 88.956004 
L 439.217594 89.84699 
L 438.230126 90.737976 
L 437.014722 91.628963 
L 435.719988 92.519949 
L 434.448657 93.410935 
L 433.212492 94.301921 
L 432.004146 95.192907 
L 430.882225 96.083893 
L 429.949904 96.97488 
L 429.263839 97.865866 
L 428.793586 98.756852 
L 428.463292 99.647838 
L 428.20472 100.538824 
L 427.960779 101.42981 
L 427.660967 102.320797 
L 427.230523 103.211783 
L 426.642814 104.102769 
L 425.955675 104.993755 
L 425.282169 105.884741 
L 424.717629 106.775727 
L 424.290081 107.666714 
L 423.971813 108.5577 
L 423.722799 109.448686 
L 423.515556 110.339672 
L 423.333728 111.230658 
L 423.168701 112.121644 
L 423.02145 113.012631 
L 422.898621 113.903617 
L 422.80332 114.794603 
L 422.73149 115.685589 
L 422.675506 116.576575 
L 422.628148 117.467561 
L 422.5841 118.358548 
L 422.540953 119.249534 
L 422.50022 120.14052 
L 422.466388 121.031506 
L 422.443365 121.922492 
L 422.430973 122.813478 
L 422.4249 123.704465 
L 422.420079 124.595451 
L 422.41416 125.486437 
L 422.408189 126.377423 
L 422.404559 127.268409 
L 422.404307 128.159395 
L 422.405934 129.050382 
L 422.406612 129.941368 
z
" clip-path="url(#pf82febd598)" style="fill: #4682b4; fill-opacity: 0.7"/>
   </g>
   <g id="FillBetweenPolyCollection_5">
    <path d="M 519.735209 128.2598 
L 519.684188 128.2598 
L 519.681858 127.420098 
L 519.683569 126.580397 
L 519.687639 125.740695 
L 519.6904 124.900993 
L 519.687643 124.061292 
L 519.676174 123.22159 
L 519.654396 122.381888 
L 519.621648 121.542187 
L 519.577732 120.702485 
L 519.524473 119.862783 
L 519.468081 119.023082 
L 519.417797 118.18338 
L 519.379195 117.343678 
L 519.347756 116.503977 
L 519.309851 115.664275 
L 519.251103 114.824573 
L 519.164712 113.984872 
L 519.052461 113.14517 
L 518.918266 112.305468 
L 518.761364 111.465767 
L 518.575354 110.626065 
L 518.352142 109.786363 
L 518.086812 108.946662 
L 517.781458 108.10696 
L 517.44378 107.267258 
L 517.074405 106.427557 
L 516.651965 105.587855 
L 516.143306 104.748153 
L 515.545808 103.908452 
L 514.918865 103.06875 
L 514.358055 102.229048 
L 513.929308 101.389347 
L 513.625765 100.549645 
L 513.379511 99.709943 
L 513.105057 98.870242 
L 512.733765 98.03054 
L 512.217925 97.190838 
L 511.51348 96.351137 
L 510.57288 95.511435 
L 509.376382 94.671733 
L 507.989459 93.832032 
L 506.584481 92.99233 
L 505.373044 92.152628 
L 504.477354 91.312927 
L 503.841879 90.473225 
L 503.266936 89.633523 
L 502.544626 88.793822 
L 501.582859 87.95412 
L 500.417754 87.114418 
L 499.139389 86.274717 
L 497.842891 85.435015 
L 496.656531 84.595313 
L 495.773368 83.755612 
L 495.379857 82.91591 
L 495.494534 82.076208 
L 495.891849 81.236507 
L 496.256957 80.396805 
L 496.451304 79.557103 
L 496.604383 78.717402 
L 496.944437 77.8777 
L 497.573985 77.037998 
L 498.410724 76.198297 
L 499.302274 75.358595 
L 500.165147 74.518893 
L 501.020996 73.679192 
L 501.935277 72.83949 
L 502.950294 71.999788 
L 504.066931 71.160087 
L 505.253843 70.320385 
L 506.457596 69.480683 
L 507.620842 68.640982 
L 508.708859 67.80128 
L 509.719106 66.961578 
L 510.663774 66.121877 
L 511.548854 65.282175 
L 512.368936 64.442473 
L 513.111614 63.602772 
L 513.765697 62.76307 
L 514.337498 61.923368 
L 514.862932 61.083667 
L 515.389559 60.243965 
L 515.9373 59.404263 
L 516.48476 58.564562 
L 516.998627 57.72486 
L 517.465162 56.885158 
L 517.886871 56.045457 
L 518.260573 55.205755 
L 518.570823 54.366053 
L 518.803045 53.526352 
L 518.957962 52.68665 
L 519.054592 51.846948 
L 519.121959 51.007247 
L 519.185594 50.167545 
L 519.257002 49.327843 
L 519.333243 48.488142 
L 519.405978 47.64844 
L 519.470661 46.808738 
L 519.528028 45.969037 
L 519.579703 45.129335 
L 519.839695 45.129335 
L 519.839695 45.129335 
L 519.891369 45.969037 
L 519.948736 46.808738 
L 520.013419 47.64844 
L 520.086154 48.488142 
L 520.162395 49.327843 
L 520.233804 50.167545 
L 520.297438 51.007247 
L 520.364805 51.846948 
L 520.461436 52.68665 
L 520.616353 53.526352 
L 520.848574 54.366053 
L 521.158824 55.205755 
L 521.532526 56.045457 
L 521.954235 56.885158 
L 522.42077 57.72486 
L 522.934637 58.564562 
L 523.482097 59.404263 
L 524.029839 60.243965 
L 524.556466 61.083667 
L 525.081899 61.923368 
L 525.6537 62.76307 
L 526.307783 63.602772 
L 527.050462 64.442473 
L 527.870543 65.282175 
L 528.755624 66.121877 
L 529.700291 66.961578 
L 530.710538 67.80128 
L 531.798555 68.640982 
L 532.961801 69.480683 
L 534.165555 70.320385 
L 535.352466 71.160087 
L 536.469104 71.999788 
L 537.48412 72.83949 
L 538.398401 73.679192 
L 539.254251 74.518893 
L 540.117123 75.358595 
L 541.008673 76.198297 
L 541.845412 77.037998 
L 542.47496 77.8777 
L 542.815014 78.717402 
L 542.968093 79.557103 
L 543.16244 80.396805 
L 543.527548 81.236507 
L 543.924863 82.076208 
L 544.039541 82.91591 
L 543.646029 83.755612 
L 542.762867 84.595313 
L 541.576506 85.435015 
L 540.280008 86.274717 
L 539.001643 87.114418 
L 537.836538 87.95412 
L 536.874771 88.793822 
L 536.152461 89.633523 
L 535.577518 90.473225 
L 534.942043 91.312927 
L 534.046353 92.152628 
L 532.834916 92.99233 
L 531.429938 93.832032 
L 530.043015 94.671733 
L 528.846517 95.511435 
L 527.905918 96.351137 
L 527.201472 97.190838 
L 526.685632 98.03054 
L 526.314341 98.870242 
L 526.039886 99.709943 
L 525.793632 100.549645 
L 525.490089 101.389347 
L 525.061342 102.229048 
L 524.500533 103.06875 
L 523.87359 103.908452 
L 523.276091 104.748153 
L 522.767432 105.587855 
L 522.344992 106.427557 
L 521.975617 107.267258 
L 521.637939 108.10696 
L 521.332585 108.946662 
L 521.067255 109.786363 
L 520.844043 110.626065 
L 520.658033 111.465767 
L 520.501131 112.305468 
L 520.366936 113.14517 
L 520.254685 113.984872 
L 520.168295 114.824573 
L 520.109546 115.664275 
L 520.071641 116.503977 
L 520.040203 117.343678 
L 520.001601 118.18338 
L 519.951316 119.023082 
L 519.894924 119.862783 
L 519.841665 120.702485 
L 519.797749 121.542187 
L 519.765001 122.381888 
L 519.743223 123.22159 
L 519.731754 124.061292 
L 519.728997 124.900993 
L 519.731758 125.740695 
L 519.735828 126.580397 
L 519.73754 127.420098 
L 519.735209 128.2598 
z
" clip-path="url(#pf82febd598)" style="fill: #4682b4; fill-opacity: 0.7"/>
   </g>
   <g id="FillBetweenPolyCollection_6">
    <path d="M 617.050429 126.578233 
L 617.007703 126.578233 
L 617.001107 125.704166 
L 616.991282 124.8301 
L 616.976198 123.956034 
L 616.955068 123.081968 
L 616.927787 122.207902 
L 616.895006 121.333835 
L 616.859662 120.459769 
L 616.82678 119.585703 
L 616.799505 118.711637 
L 616.774331 117.83757 
L 616.739503 116.963504 
L 616.678055 116.089438 
L 616.575561 115.215372 
L 616.429881 114.341306 
L 616.254175 113.467239 
L 616.066712 112.593173 
L 615.87655 111.719107 
L 615.681512 110.845041 
L 615.478529 109.970975 
L 615.270511 109.096908 
L 615.062143 108.222842 
L 614.851136 107.348776 
L 614.621127 106.47471 
L 614.340706 105.600643 
L 613.976756 104.726577 
L 613.518495 103.852511 
L 612.986737 102.978445 
L 612.417271 102.104379 
L 611.849161 101.230312 
L 611.337512 100.356246 
L 610.950008 99.48218 
L 610.714994 98.608114 
L 610.575172 97.734047 
L 610.417825 96.859981 
L 610.157728 95.985915 
L 609.781377 95.111849 
L 609.309208 94.237783 
L 608.728584 93.363716 
L 607.980655 92.48965 
L 607.01046 91.615584 
L 605.809524 90.741518 
L 604.408822 89.867452 
L 602.859091 88.993385 
L 601.23188 88.119319 
L 599.618151 87.245253 
L 598.105594 86.371187 
L 596.759499 85.49712 
L 595.624645 84.623054 
L 594.727922 83.748988 
L 594.065801 82.874922 
L 593.594412 82.000856 
L 593.246268 81.126789 
L 592.971174 80.252723 
L 592.771696 79.378657 
L 592.699224 78.504591 
L 592.804234 77.630525 
L 593.084447 76.756458 
L 593.497729 75.882392 
L 594.039077 75.008326 
L 594.777499 74.13426 
L 595.780791 73.260193 
L 597.017132 72.386127 
L 598.360173 71.512061 
L 599.676532 70.637995 
L 600.892608 69.763929 
L 602.016361 68.889862 
L 603.136162 68.015796 
L 604.372353 67.14173 
L 605.776021 66.267664 
L 607.262435 65.393597 
L 608.658168 64.519531 
L 609.819 63.645465 
L 610.71085 62.771399 
L 611.40028 61.897333 
L 611.986268 61.023266 
L 612.539481 60.1492 
L 613.08679 59.275134 
L 613.629221 58.401068 
L 614.160233 57.527002 
L 614.667264 56.652935 
L 615.127107 55.778869 
L 615.51312 54.904803 
L 615.812433 54.030737 
L 616.034036 53.15667 
L 616.199551 52.282604 
L 616.328861 51.408538 
L 616.434402 50.534472 
L 616.524594 49.660406 
L 616.607643 48.786339 
L 616.689755 47.912273 
L 616.770725 47.038207 
L 616.8438 46.164141 
L 616.901339 45.290075 
L 616.940915 44.416008 
L 616.966201 43.541942 
L 616.982784 42.667876 
L 616.994219 41.79381 
L 617.002093 40.919743 
L 617.007939 40.045677 
L 617.050194 40.045677 
L 617.050194 40.045677 
L 617.056039 40.919743 
L 617.063914 41.79381 
L 617.075349 42.667876 
L 617.091931 43.541942 
L 617.117218 44.416008 
L 617.156794 45.290075 
L 617.214333 46.164141 
L 617.287407 47.038207 
L 617.368378 47.912273 
L 617.45049 48.786339 
L 617.533539 49.660406 
L 617.62373 50.534472 
L 617.729272 51.408538 
L 617.858581 52.282604 
L 618.024096 53.15667 
L 618.2457 54.030737 
L 618.545012 54.904803 
L 618.931025 55.778869 
L 619.390868 56.652935 
L 619.8979 57.527002 
L 620.428911 58.401068 
L 620.971342 59.275134 
L 621.518651 60.1492 
L 622.071865 61.023266 
L 622.657852 61.897333 
L 623.347282 62.771399 
L 624.239133 63.645465 
L 625.399964 64.519531 
L 626.795697 65.393597 
L 628.282111 66.267664 
L 629.68578 67.14173 
L 630.921971 68.015796 
L 632.041771 68.889862 
L 633.165524 69.763929 
L 634.381601 70.637995 
L 635.69796 71.512061 
L 637.041 72.386127 
L 638.277341 73.260193 
L 639.280633 74.13426 
L 640.019055 75.008326 
L 640.560403 75.882392 
L 640.973685 76.756458 
L 641.253899 77.630525 
L 641.358908 78.504591 
L 641.286437 79.378657 
L 641.086958 80.252723 
L 640.811864 81.126789 
L 640.46372 82.000856 
L 639.992332 82.874922 
L 639.33021 83.748988 
L 638.433487 84.623054 
L 637.298633 85.49712 
L 635.952538 86.371187 
L 634.439982 87.245253 
L 632.826252 88.119319 
L 631.199041 88.993385 
L 629.64931 89.867452 
L 628.248608 90.741518 
L 627.047673 91.615584 
L 626.077478 92.48965 
L 625.329548 93.363716 
L 624.748925 94.237783 
L 624.276755 95.111849 
L 623.900405 95.985915 
L 623.640308 96.859981 
L 623.48296 97.734047 
L 623.343138 98.608114 
L 623.108125 99.48218 
L 622.72062 100.356246 
L 622.208971 101.230312 
L 621.640861 102.104379 
L 621.071395 102.978445 
L 620.539637 103.852511 
L 620.081376 104.726577 
L 619.717427 105.600643 
L 619.437006 106.47471 
L 619.206997 107.348776 
L 618.995989 108.222842 
L 618.787622 109.096908 
L 618.579603 109.970975 
L 618.376621 110.845041 
L 618.181583 111.719107 
L 617.99142 112.593173 
L 617.803958 113.467239 
L 617.628251 114.341306 
L 617.482571 115.215372 
L 617.380078 116.089438 
L 617.318629 116.963504 
L 617.283802 117.83757 
L 617.258628 118.711637 
L 617.231353 119.585703 
L 617.19847 120.459769 
L 617.163127 121.333835 
L 617.130346 122.207902 
L 617.103065 123.081968 
L 617.081935 123.956034 
L 617.066851 124.8301 
L 617.057025 125.704166 
L 617.050429 126.578233 
z
" clip-path="url(#pf82febd598)" style="fill: #4682b4; fill-opacity: 0.7"/>
   </g>
   <g id="FillBetweenPolyCollection_7">
    <path d="M 714.363806 129.97383 
L 714.333062 129.97383 
L 714.33482 129.048283 
L 714.338601 128.122735 
L 714.340865 127.197188 
L 714.33808 126.271641 
L 714.327793 125.346093 
L 714.309402 124.420546 
L 714.284546 123.494998 
L 714.255529 122.569451 
L 714.222486 121.643903 
L 714.183362 120.718356 
L 714.138735 119.792808 
L 714.095692 118.867261 
L 714.061245 117.941713 
L 714.027847 117.016166 
L 713.969973 116.090619 
L 713.863156 115.165071 
L 713.707893 114.239524 
L 713.527704 113.313976 
L 713.338184 112.388429 
L 713.128021 111.462881 
L 712.883551 110.537334 
L 712.618933 109.611786 
L 712.358842 108.686239 
L 712.095711 107.760691 
L 711.781991 106.835144 
L 711.366716 105.909596 
L 710.837882 104.984049 
L 710.23792 104.058502 
L 709.645812 103.132954 
L 709.139127 102.207407 
L 708.758108 101.281859 
L 708.486983 100.356312 
L 708.254229 99.430764 
L 707.959486 98.505217 
L 707.53744 97.579669 
L 707.013581 96.654122 
L 706.464157 95.728574 
L 705.899188 94.803027 
L 705.21899 93.87748 
L 704.305751 92.951932 
L 703.129531 92.026385 
L 701.755718 91.100837 
L 700.276299 90.17529 
L 698.746541 89.249742 
L 697.177871 88.324195 
L 695.58513 87.398647 
L 694.03575 86.4731 
L 692.642073 85.547552 
L 691.515345 84.622005 
L 690.747746 83.696457 
L 690.398704 82.77091 
L 690.418292 81.845363 
L 690.590769 80.919815 
L 690.643143 79.994268 
L 690.453185 79.06872 
L 690.147781 78.143173 
L 690.018592 77.217625 
L 690.341513 76.292078 
L 691.211693 75.36653 
L 692.498414 74.440983 
L 693.972905 73.515435 
L 695.495595 72.589888 
L 697.062639 71.664341 
L 698.692996 70.738793 
L 700.332971 69.813246 
L 701.888561 68.887698 
L 703.313727 67.962151 
L 704.628419 67.036603 
L 705.850026 66.111056 
L 706.946361 65.185508 
L 707.881832 64.259961 
L 708.687549 63.334413 
L 709.44951 62.408866 
L 710.216444 61.483319 
L 710.940153 60.557771 
L 711.529896 59.632224 
L 711.951849 58.706676 
L 712.252269 57.781129 
L 712.50051 56.855581 
L 712.737033 55.930034 
L 712.969868 55.004486 
L 713.196773 54.078939 
L 713.418912 53.153391 
L 713.636256 52.227844 
L 713.837576 51.302296 
L 714.001464 50.376749 
L 714.111073 49.451202 
L 714.168569 48.525654 
L 714.194404 47.600107 
L 714.212817 46.674559 
L 714.237377 45.749012 
L 714.267305 44.823464 
L 714.294423 43.897917 
L 714.312645 42.972369 
L 714.322045 42.046822 
L 714.326184 41.121274 
L 714.327925 40.195727 
L 714.328804 39.27018 
L 714.330451 38.344632 
L 714.366416 38.344632 
L 714.366416 38.344632 
L 714.368063 39.27018 
L 714.368942 40.195727 
L 714.370683 41.121274 
L 714.374823 42.046822 
L 714.384223 42.972369 
L 714.402444 43.897917 
L 714.429563 44.823464 
L 714.45949 45.749012 
L 714.484051 46.674559 
L 714.502464 47.600107 
L 714.528299 48.525654 
L 714.585795 49.451202 
L 714.695404 50.376749 
L 714.859292 51.302296 
L 715.060612 52.227844 
L 715.277956 53.153391 
L 715.500095 54.078939 
L 715.726999 55.004486 
L 715.959835 55.930034 
L 716.196358 56.855581 
L 716.444599 57.781129 
L 716.745019 58.706676 
L 717.166971 59.632224 
L 717.756715 60.557771 
L 718.480423 61.483319 
L 719.247358 62.408866 
L 720.009318 63.334413 
L 720.815036 64.259961 
L 721.750507 65.185508 
L 722.846842 66.111056 
L 724.068448 67.036603 
L 725.38314 67.962151 
L 726.808307 68.887698 
L 728.363896 69.813246 
L 730.003871 70.738793 
L 731.634229 71.664341 
L 733.201272 72.589888 
L 734.723963 73.515435 
L 736.198453 74.440983 
L 737.485174 75.36653 
L 738.355355 76.292078 
L 738.678276 77.217625 
L 738.549087 78.143173 
L 738.243683 79.06872 
L 738.053725 79.994268 
L 738.106098 80.919815 
L 738.278576 81.845363 
L 738.298163 82.77091 
L 737.949122 83.696457 
L 737.181523 84.622005 
L 736.054795 85.547552 
L 734.661118 86.4731 
L 733.111738 87.398647 
L 731.518996 88.324195 
L 729.950326 89.249742 
L 728.420569 90.17529 
L 726.941149 91.100837 
L 725.567337 92.026385 
L 724.391117 92.951932 
L 723.477878 93.87748 
L 722.79768 94.803027 
L 722.23271 95.728574 
L 721.683287 96.654122 
L 721.159428 97.579669 
L 720.737382 98.505217 
L 720.442639 99.430764 
L 720.209884 100.356312 
L 719.93876 101.281859 
L 719.557741 102.207407 
L 719.051055 103.132954 
L 718.458948 104.058502 
L 717.858986 104.984049 
L 717.330151 105.909596 
L 716.914877 106.835144 
L 716.601157 107.760691 
L 716.338026 108.686239 
L 716.077934 109.611786 
L 715.813317 110.537334 
L 715.568846 111.462881 
L 715.358683 112.388429 
L 715.169163 113.313976 
L 714.988975 114.239524 
L 714.833711 115.165071 
L 714.726895 116.090619 
L 714.669021 117.016166 
L 714.635623 117.941713 
L 714.601176 118.867261 
L 714.558132 119.792808 
L 714.513505 120.718356 
L 714.474381 121.643903 
L 714.441338 122.569451 
L 714.412321 123.494998 
L 714.387465 124.420546 
L 714.369075 125.346093 
L 714.358788 126.271641 
L 714.356002 127.197188 
L 714.358267 128.122735 
L 714.362048 129.048283 
L 714.363806 129.97383 
z
" clip-path="url(#pf82febd598)" style="fill: #4682b4; fill-opacity: 0.7"/>
   </g>
   <g id="FillBetweenPolyCollection_8">
    <path d="M 811.716741 124.877188 
L 811.618862 124.877188 
L 811.598224 124.020304 
L 811.578643 123.16342 
L 811.561766 122.306536 
L 811.546398 121.449652 
L 811.528203 120.592768 
L 811.499587 119.735884 
L 811.450606 118.879 
L 811.373606 118.022116 
L 811.269862 117.165232 
L 811.150802 116.308348 
L 811.030951 115.451464 
L 810.919518 114.59458 
L 810.816773 113.737696 
L 810.713558 112.880812 
L 810.593482 112.023928 
L 810.441913 111.167044 
L 810.256628 110.31016 
L 810.044415 109.453277 
L 809.802759 108.596393 
L 809.510194 107.739509 
L 809.142191 106.882625 
L 808.698329 106.025741 
L 808.21316 105.168857 
L 807.740264 104.311973 
L 807.325872 103.455089 
L 806.994761 102.598205 
L 806.745991 101.741321 
L 806.541649 100.884437 
L 806.305177 100.027553 
L 805.964582 99.170669 
L 805.511955 98.313785 
L 804.998583 97.456901 
L 804.463758 96.600017 
L 803.89423 95.743133 
L 803.258706 94.88625 
L 802.547153 94.029366 
L 801.753218 93.172482 
L 800.835554 92.315598 
L 799.730787 91.458714 
L 798.426639 90.60183 
L 797.010268 89.744946 
L 795.610727 88.888062 
L 794.293292 88.031178 
L 793.04333 87.174294 
L 791.845586 86.31741 
L 790.729946 85.460526 
L 789.737601 84.603642 
L 788.890931 83.746758 
L 788.208136 82.889874 
L 787.71248 82.03299 
L 787.418648 81.176106 
L 787.337959 80.319223 
L 787.50172 79.462339 
L 787.953379 78.605455 
L 788.71049 77.748571 
L 789.749016 76.891687 
L 791.019396 76.034803 
L 792.454693 75.177919 
L 793.962616 74.321035 
L 795.436401 73.464151 
L 796.798325 72.607267 
L 798.040915 71.750383 
L 799.220365 70.893499 
L 800.398174 70.036615 
L 801.582968 69.179731 
L 802.726466 68.322847 
L 803.7658 67.465963 
L 804.66563 66.609079 
L 805.440046 65.752195 
L 806.154773 64.895312 
L 806.891458 64.038428 
L 807.673742 63.181544 
L 808.425512 62.32466 
L 809.028175 61.467776 
L 809.426353 60.610892 
L 809.667966 59.754008 
L 809.848352 58.897124 
L 810.030545 58.04024 
L 810.21843 57.183356 
L 810.390696 56.326472 
L 810.541385 55.469588 
L 810.681537 54.612704 
L 810.817879 53.75582 
L 810.947228 52.898936 
L 811.066886 52.042052 
L 811.177488 51.185168 
L 811.277251 50.328285 
L 811.362377 49.471401 
L 811.432871 48.614517 
L 811.492503 47.757633 
L 811.543524 46.900749 
L 811.585001 46.043865 
L 811.615668 45.186981 
L 811.635637 44.330097 
L 811.645413 43.473213 
L 811.645448 42.616329 
L 811.63797 41.759445 
L 811.628665 40.902561 
L 811.624701 40.045677 
L 811.710902 40.045677 
L 811.710902 40.045677 
L 811.706938 40.902561 
L 811.697633 41.759445 
L 811.690154 42.616329 
L 811.690189 43.473213 
L 811.699966 44.330097 
L 811.719935 45.186981 
L 811.750601 46.043865 
L 811.792078 46.900749 
L 811.8431 47.757633 
L 811.902732 48.614517 
L 811.973226 49.471401 
L 812.058352 50.328285 
L 812.158115 51.185168 
L 812.268717 52.042052 
L 812.388374 52.898936 
L 812.517724 53.75582 
L 812.654065 54.612704 
L 812.794218 55.469588 
L 812.944907 56.326472 
L 813.117173 57.183356 
L 813.305058 58.04024 
L 813.487251 58.897124 
L 813.667637 59.754008 
L 813.90925 60.610892 
L 814.307427 61.467776 
L 814.91009 62.32466 
L 815.66186 63.181544 
L 816.444144 64.038428 
L 817.18083 64.895312 
L 817.895557 65.752195 
L 818.669973 66.609079 
L 819.569803 67.465963 
L 820.609136 68.322847 
L 821.752635 69.179731 
L 822.937428 70.036615 
L 824.115238 70.893499 
L 825.294688 71.750383 
L 826.537278 72.607267 
L 827.899202 73.464151 
L 829.372987 74.321035 
L 830.88091 75.177919 
L 832.316207 76.034803 
L 833.586587 76.891687 
L 834.625113 77.748571 
L 835.382223 78.605455 
L 835.833883 79.462339 
L 835.997643 80.319223 
L 835.916955 81.176106 
L 835.623123 82.03299 
L 835.127466 82.889874 
L 834.444672 83.746758 
L 833.598002 84.603642 
L 832.605657 85.460526 
L 831.490017 86.31741 
L 830.292272 87.174294 
L 829.042311 88.031178 
L 827.724875 88.888062 
L 826.325335 89.744946 
L 824.908964 90.60183 
L 823.604815 91.458714 
L 822.500049 92.315598 
L 821.582385 93.172482 
L 820.78845 94.029366 
L 820.076897 94.88625 
L 819.441373 95.743133 
L 818.871845 96.600017 
L 818.33702 97.456901 
L 817.823648 98.313785 
L 817.371021 99.170669 
L 817.030426 100.027553 
L 816.793954 100.884437 
L 816.589612 101.741321 
L 816.340842 102.598205 
L 816.00973 103.455089 
L 815.595339 104.311973 
L 815.122443 105.168857 
L 814.637273 106.025741 
L 814.193412 106.882625 
L 813.825409 107.739509 
L 813.532844 108.596393 
L 813.291187 109.453277 
L 813.078975 110.31016 
L 812.89369 111.167044 
L 812.742121 112.023928 
L 812.622045 112.880812 
L 812.518829 113.737696 
L 812.416085 114.59458 
L 812.304652 115.451464 
L 812.1848 116.308348 
L 812.065741 117.165232 
L 811.961997 118.022116 
L 811.884996 118.879 
L 811.836015 119.735884 
L 811.807399 120.592768 
L 811.789205 121.449652 
L 811.773837 122.306536 
L 811.75696 123.16342 
L 811.737379 124.020304 
L 811.716741 124.877188 
z
" clip-path="url(#pf82febd598)" style="fill: #4682b4; fill-opacity: 0.7"/>
   </g>
   <g id="FillBetweenPolyCollection_9">
    <path d="M 909.001137 131.674875 
L 908.973201 131.674875 
L 908.974765 130.766379 
L 908.978453 129.857883 
L 908.982137 128.949386 
L 908.983986 128.04089 
L 908.98255 127.132394 
L 908.975618 126.223897 
L 908.959492 125.315401 
L 908.929924 124.406905 
L 908.884555 123.498408 
L 908.825253 122.589912 
L 908.75829 121.681416 
L 908.691636 120.772919 
L 908.631052 119.864423 
L 908.577296 118.955927 
L 908.52508 118.04743 
L 908.463651 117.138934 
L 908.379464 116.230438 
L 908.260842 115.321941 
L 908.102874 114.413445 
L 907.910538 113.504949 
L 907.697585 112.596452 
L 907.478153 111.687956 
L 907.253618 110.77946 
L 907.007912 109.870963 
L 906.722125 108.962467 
L 906.396868 108.053971 
L 906.055947 107.145474 
L 905.722539 106.236978 
L 905.392737 105.328481 
L 905.04033 104.419985 
L 904.651221 103.511489 
L 904.245479 102.602992 
L 903.859751 101.694496 
L 903.514223 100.786 
L 903.201339 99.877503 
L 902.89733 98.969007 
L 902.569878 98.060511 
L 902.172945 97.152014 
L 901.655603 96.243518 
L 901.003847 95.335022 
L 900.277162 94.426525 
L 899.579163 93.518029 
L 898.96576 92.609533 
L 898.378366 91.701036 
L 897.685409 90.79254 
L 896.798118 89.884044 
L 895.72857 88.975547 
L 894.531928 88.067051 
L 893.229173 87.158555 
L 891.81781 86.250058 
L 890.344168 85.341562 
L 888.923825 84.433066 
L 887.666087 83.524569 
L 886.597603 82.616073 
L 885.696869 81.707576 
L 885.004005 80.79908 
L 884.657327 79.890584 
L 884.785016 78.982087 
L 885.360943 78.073591 
L 886.20109 77.165095 
L 887.115063 76.256598 
L 888.033636 75.348102 
L 888.991482 74.439606 
L 890.042772 73.531109 
L 891.218973 72.622613 
L 892.528084 71.714117 
L 893.953407 70.80562 
L 895.445409 69.897124 
L 896.916994 68.988628 
L 898.25792 68.080131 
L 899.389435 67.171635 
L 900.33319 66.263139 
L 901.2105 65.354642 
L 902.146754 64.446146 
L 903.176753 63.53765 
L 904.236328 62.629153 
L 905.212792 61.720657 
L 906.000162 60.812161 
L 906.551592 59.903664 
L 906.910868 58.995168 
L 907.180682 58.086671 
L 907.442923 57.178175 
L 907.708412 56.269679 
L 907.938598 55.361182 
L 908.103689 54.452686 
L 908.216304 53.54419 
L 908.316617 52.635693 
L 908.433895 51.727197 
L 908.564717 50.818701 
L 908.684431 49.910204 
L 908.774067 49.001708 
L 908.833591 48.093212 
L 908.873645 47.184715 
L 908.902428 46.276219 
L 908.922221 45.367723 
L 908.933434 44.459226 
L 908.938319 43.55073 
L 908.941309 42.642234 
L 908.946765 41.733737 
L 909.027573 41.733737 
L 909.027573 41.733737 
L 909.033029 42.642234 
L 909.036019 43.55073 
L 909.040903 44.459226 
L 909.052117 45.367723 
L 909.07191 46.276219 
L 909.100693 47.184715 
L 909.140747 48.093212 
L 909.200271 49.001708 
L 909.289907 49.910204 
L 909.409621 50.818701 
L 909.540443 51.727197 
L 909.657721 52.635693 
L 909.758034 53.54419 
L 909.870649 54.452686 
L 910.03574 55.361182 
L 910.265926 56.269679 
L 910.531415 57.178175 
L 910.793656 58.086671 
L 911.06347 58.995168 
L 911.422746 59.903664 
L 911.974176 60.812161 
L 912.761546 61.720657 
L 913.73801 62.629153 
L 914.797585 63.53765 
L 915.827584 64.446146 
L 916.763838 65.354642 
L 917.641148 66.263139 
L 918.584903 67.171635 
L 919.716418 68.080131 
L 921.057344 68.988628 
L 922.528929 69.897124 
L 924.020931 70.80562 
L 925.446254 71.714117 
L 926.755365 72.622613 
L 927.931566 73.531109 
L 928.982856 74.439606 
L 929.940702 75.348102 
L 930.859275 76.256598 
L 931.773248 77.165095 
L 932.613395 78.073591 
L 933.189322 78.982087 
L 933.317011 79.890584 
L 932.970333 80.79908 
L 932.277469 81.707576 
L 931.376735 82.616073 
L 930.308251 83.524569 
L 929.050513 84.433066 
L 927.63017 85.341562 
L 926.156527 86.250058 
L 924.745164 87.158555 
L 923.44241 88.067051 
L 922.245768 88.975547 
L 921.17622 89.884044 
L 920.288929 90.79254 
L 919.595972 91.701036 
L 919.008578 92.609533 
L 918.395175 93.518029 
L 917.697176 94.426525 
L 916.970491 95.335022 
L 916.318735 96.243518 
L 915.801393 97.152014 
L 915.40446 98.060511 
L 915.077008 98.969007 
L 914.772999 99.877503 
L 914.460115 100.786 
L 914.114587 101.694496 
L 913.728859 102.602992 
L 913.323117 103.511489 
L 912.934008 104.419985 
L 912.5816 105.328481 
L 912.251799 106.236978 
L 911.918391 107.145474 
L 911.57747 108.053971 
L 911.252213 108.962467 
L 910.966426 109.870963 
L 910.72072 110.77946 
L 910.496185 111.687956 
L 910.276753 112.596452 
L 910.0638 113.504949 
L 909.871464 114.413445 
L 909.713496 115.321941 
L 909.594874 116.230438 
L 909.510687 117.138934 
L 909.449257 118.04743 
L 909.397042 118.955927 
L 909.343286 119.864423 
L 909.282702 120.772919 
L 909.216048 121.681416 
L 909.149085 122.589912 
L 909.089783 123.498408 
L 909.044414 124.406905 
L 909.014846 125.315401 
L 908.99872 126.223897 
L 908.991788 127.132394 
L 908.990352 128.04089 
L 908.9922 128.949386 
L 908.995885 129.857883 
L 908.999573 130.766379 
L 909.001137 131.674875 
z
" clip-path="url(#pf82febd598)" style="fill: #4682b4; fill-opacity: 0.7"/>
   </g>
   <g id="FillBetweenPolyCollection_10">
    <path d="M 1006.333067 128.279278 
L 1006.280006 128.279278 
L 1006.274252 127.439576 
L 1006.269864 126.599874 
L 1006.265836 125.760173 
L 1006.259967 124.920471 
L 1006.249076 124.080769 
L 1006.229232 123.241068 
L 1006.195977 122.401366 
L 1006.144702 121.561664 
L 1006.071807 120.721963 
L 1005.976835 119.882261 
L 1005.863802 119.042559 
L 1005.738984 118.202858 
L 1005.60586 117.363156 
L 1005.46276 116.523454 
L 1005.307218 115.683753 
L 1005.142755 114.844051 
L 1004.978564 114.004349 
L 1004.818424 113.164648 
L 1004.648097 112.324946 
L 1004.436449 111.485244 
L 1004.154214 110.645543 
L 1003.79513 109.805841 
L 1003.380417 108.966139 
L 1002.944843 108.126438 
L 1002.519794 107.286736 
L 1002.127026 106.447034 
L 1001.78138 105.607333 
L 1001.490371 104.767631 
L 1001.245556 103.927929 
L 1001.016448 103.088228 
L 1000.760619 102.248526 
L 1000.447593 101.408824 
L 1000.078231 100.569123 
L 999.683372 99.729421 
L 999.301058 98.889719 
L 998.94645 98.050018 
L 998.594479 97.210316 
L 998.189932 96.370614 
L 997.683225 95.530913 
L 997.068637 94.691211 
L 996.391215 93.851509 
L 995.70649 93.011808 
L 995.021793 92.172106 
L 994.281028 91.332404 
L 993.425089 90.492703 
L 992.477851 89.653001 
L 991.56508 88.813299 
L 990.831073 87.973598 
L 990.316092 87.133896 
L 989.897227 86.294194 
L 989.34743 85.454493 
L 988.477537 84.614791 
L 987.262683 83.775089 
L 985.862556 82.935388 
L 984.521648 82.095686 
L 983.429335 81.255984 
L 982.65024 80.416283 
L 982.167394 79.576581 
L 981.976695 78.736879 
L 982.131544 77.897178 
L 982.694771 77.057476 
L 983.651593 76.217774 
L 984.874339 75.378073 
L 986.172635 74.538371 
L 987.385264 73.698669 
L 988.451227 72.858968 
L 989.424201 72.019266 
L 990.421327 71.179564 
L 991.531778 70.339863 
L 992.755331 69.500161 
L 994.028634 68.660459 
L 995.300162 67.820758 
L 996.556485 66.981056 
L 997.782917 66.141354 
L 998.939806 65.301653 
L 999.993401 64.461951 
L 1000.940917 63.622249 
L 1001.786697 62.782548 
L 1002.516137 61.942846 
L 1003.114008 61.103144 
L 1003.596326 60.263443 
L 1004.006416 59.423741 
L 1004.382118 58.584039 
L 1004.733652 57.744338 
L 1005.047465 56.904636 
L 1005.303427 56.064934 
L 1005.491262 55.225233 
L 1005.618867 54.385531 
L 1005.708251 53.545829 
L 1005.781939 52.706128 
L 1005.851599 51.866426 
L 1005.917911 51.026724 
L 1005.978155 50.187023 
L 1006.031974 49.347321 
L 1006.081381 48.507619 
L 1006.128052 47.667918 
L 1006.171757 46.828216 
L 1006.210794 45.988514 
L 1006.243287 45.148813 
L 1006.369786 45.148813 
L 1006.369786 45.148813 
L 1006.402279 45.988514 
L 1006.441317 46.828216 
L 1006.485021 47.667918 
L 1006.531692 48.507619 
L 1006.581099 49.347321 
L 1006.634918 50.187023 
L 1006.695162 51.026724 
L 1006.761474 51.866426 
L 1006.831134 52.706128 
L 1006.904823 53.545829 
L 1006.994206 54.385531 
L 1007.121811 55.225233 
L 1007.309646 56.064934 
L 1007.565608 56.904636 
L 1007.879421 57.744338 
L 1008.230955 58.584039 
L 1008.606657 59.423741 
L 1009.016747 60.263443 
L 1009.499065 61.103144 
L 1010.096936 61.942846 
L 1010.826376 62.782548 
L 1011.672157 63.622249 
L 1012.619672 64.461951 
L 1013.673267 65.301653 
L 1014.830156 66.141354 
L 1016.056588 66.981056 
L 1017.312911 67.820758 
L 1018.584439 68.660459 
L 1019.857743 69.500161 
L 1021.081295 70.339863 
L 1022.191746 71.179564 
L 1023.188872 72.019266 
L 1024.161846 72.858968 
L 1025.22781 73.698669 
L 1026.440438 74.538371 
L 1027.738734 75.378073 
L 1028.96148 76.217774 
L 1029.918302 77.057476 
L 1030.481529 77.897178 
L 1030.636378 78.736879 
L 1030.445679 79.576581 
L 1029.962833 80.416283 
L 1029.183738 81.255984 
L 1028.091425 82.095686 
L 1026.750518 82.935388 
L 1025.35039 83.775089 
L 1024.135536 84.614791 
L 1023.265643 85.454493 
L 1022.715847 86.294194 
L 1022.296981 87.133896 
L 1021.782 87.973598 
L 1021.047993 88.813299 
L 1020.135222 89.653001 
L 1019.187984 90.492703 
L 1018.332045 91.332404 
L 1017.59128 92.172106 
L 1016.906583 93.011808 
L 1016.221859 93.851509 
L 1015.544436 94.691211 
L 1014.929849 95.530913 
L 1014.423141 96.370614 
L 1014.018594 97.210316 
L 1013.666623 98.050018 
L 1013.312015 98.889719 
L 1012.929701 99.729421 
L 1012.534842 100.569123 
L 1012.16548 101.408824 
L 1011.852455 102.248526 
L 1011.596625 103.088228 
L 1011.367517 103.927929 
L 1011.122703 104.767631 
L 1010.831693 105.607333 
L 1010.486047 106.447034 
L 1010.093279 107.286736 
L 1009.66823 108.126438 
L 1009.232657 108.966139 
L 1008.817943 109.805841 
L 1008.458859 110.645543 
L 1008.176624 111.485244 
L 1007.964977 112.324946 
L 1007.794649 113.164648 
L 1007.634509 114.004349 
L 1007.470318 114.844051 
L 1007.305855 115.683753 
L 1007.150313 116.523454 
L 1007.007213 117.363156 
L 1006.874089 118.202858 
L 1006.749271 119.042559 
L 1006.636238 119.882261 
L 1006.541266 120.721963 
L 1006.468371 121.561664 
L 1006.417096 122.401366 
L 1006.383841 123.241068 
L 1006.363997 124.080769 
L 1006.353106 124.920471 
L 1006.347237 125.760173 
L 1006.343209 126.599874 
L 1006.338821 127.439576 
L 1006.333067 128.279278 
z
" clip-path="url(#pf82febd598)" style="fill: #4682b4; fill-opacity: 0.7"/>
   </g>
   <g id="FillBetweenPolyCollection_11">
    <path d="M 1103.64496 129.960845 
L 1103.606848 129.960845 
L 1103.603274 129.104158 
L 1103.598639 128.247471 
L 1103.59152 127.390784 
L 1103.581741 126.534096 
L 1103.570043 125.677409 
L 1103.55631 124.820722 
L 1103.538203 123.964035 
L 1103.511397 123.107348 
L 1103.47015 122.25066 
L 1103.406675 121.393973 
L 1103.311454 120.537286 
L 1103.178305 119.680599 
L 1103.011848 118.823912 
L 1102.828196 117.967225 
L 1102.644577 117.110537 
L 1102.466583 116.25385 
L 1102.286033 115.397163 
L 1102.091908 114.540476 
L 1101.882823 113.683789 
L 1101.667246 112.827101 
L 1101.450388 111.970414 
L 1101.220638 111.113727 
L 1100.948896 110.25704 
L 1100.603703 109.400353 
L 1100.174849 108.543665 
L 1099.690698 107.686978 
L 1099.211225 106.830291 
L 1098.792095 105.973604 
L 1098.444858 105.116917 
L 1098.130227 104.260229 
L 1097.790281 103.403542 
L 1097.386008 102.546855 
L 1096.908884 101.690168 
L 1096.369819 100.833481 
L 1095.788478 99.976793 
L 1095.194303 99.120106 
L 1094.629763 98.263419 
L 1094.140169 97.406732 
L 1093.747632 96.550045 
L 1093.426658 95.693357 
L 1093.106289 94.83667 
L 1092.706658 93.979983 
L 1092.187154 93.123296 
L 1091.569252 92.266609 
L 1090.914925 91.409921 
L 1090.271601 90.553234 
L 1089.615885 89.696547 
L 1088.841086 88.83986 
L 1087.823552 87.983173 
L 1086.538663 87.126485 
L 1085.118564 86.269798 
L 1083.770266 85.413111 
L 1082.621937 84.556424 
L 1081.657289 83.699737 
L 1080.800276 82.843049 
L 1080.04741 81.986362 
L 1079.505536 81.129675 
L 1079.296062 80.272988 
L 1079.415602 79.416301 
L 1079.692157 78.559613 
L 1079.904382 77.702926 
L 1079.977334 76.846239 
L 1080.065469 75.989552 
L 1080.425675 75.132865 
L 1081.20699 74.276177 
L 1082.366848 73.41949 
L 1083.757955 72.562803 
L 1085.249536 71.706116 
L 1086.766678 70.849429 
L 1088.265279 69.992741 
L 1089.718662 69.136054 
L 1091.136909 68.279367 
L 1092.570456 67.42268 
L 1094.061458 66.565993 
L 1095.581758 65.709305 
L 1097.027275 64.852618 
L 1098.280355 63.995931 
L 1099.281986 63.139244 
L 1100.053519 62.282557 
L 1100.66067 61.425869 
L 1101.160766 60.569182 
L 1101.577548 59.712495 
L 1101.913073 58.855808 
L 1102.172672 57.999121 
L 1102.37558 57.142433 
L 1102.546113 56.285746 
L 1102.700928 55.429059 
L 1102.846164 54.572372 
L 1102.9818 53.715685 
L 1103.104543 52.858997 
L 1103.209296 52.00231 
L 1103.293103 51.145623 
L 1103.358497 50.288936 
L 1103.41119 49.432249 
L 1103.455162 48.575561 
L 1103.491654 47.718874 
L 1103.521749 46.862187 
L 1103.547504 46.0055 
L 1103.57039 45.148813 
L 1103.681419 45.148813 
L 1103.681419 45.148813 
L 1103.704304 46.0055 
L 1103.730059 46.862187 
L 1103.760155 47.718874 
L 1103.796646 48.575561 
L 1103.840618 49.432249 
L 1103.893311 50.288936 
L 1103.958705 51.145623 
L 1104.042512 52.00231 
L 1104.147265 52.858997 
L 1104.270009 53.715685 
L 1104.405644 54.572372 
L 1104.550881 55.429059 
L 1104.705696 56.285746 
L 1104.876228 57.142433 
L 1105.079136 57.999121 
L 1105.338735 58.855808 
L 1105.67426 59.712495 
L 1106.091042 60.569182 
L 1106.591139 61.425869 
L 1107.198289 62.282557 
L 1107.969822 63.139244 
L 1108.971453 63.995931 
L 1110.224533 64.852618 
L 1111.67005 65.709305 
L 1113.190351 66.565993 
L 1114.681352 67.42268 
L 1116.114899 68.279367 
L 1117.533146 69.136054 
L 1118.98653 69.992741 
L 1120.48513 70.849429 
L 1122.002273 71.706116 
L 1123.493854 72.562803 
L 1124.88496 73.41949 
L 1126.044818 74.276177 
L 1126.826134 75.132865 
L 1127.18634 75.989552 
L 1127.274475 76.846239 
L 1127.347426 77.702926 
L 1127.559652 78.559613 
L 1127.836207 79.416301 
L 1127.955746 80.272988 
L 1127.746272 81.129675 
L 1127.204399 81.986362 
L 1126.451532 82.843049 
L 1125.594519 83.699737 
L 1124.629872 84.556424 
L 1123.481543 85.413111 
L 1122.133245 86.269798 
L 1120.713145 87.126485 
L 1119.428256 87.983173 
L 1118.410722 88.83986 
L 1117.635924 89.696547 
L 1116.980207 90.553234 
L 1116.336884 91.409921 
L 1115.682557 92.266609 
L 1115.064654 93.123296 
L 1114.54515 93.979983 
L 1114.145519 94.83667 
L 1113.82515 95.693357 
L 1113.504176 96.550045 
L 1113.111639 97.406732 
L 1112.622046 98.263419 
L 1112.057505 99.120106 
L 1111.46333 99.976793 
L 1110.881989 100.833481 
L 1110.342924 101.690168 
L 1109.865801 102.546855 
L 1109.461528 103.403542 
L 1109.121581 104.260229 
L 1108.80695 105.116917 
L 1108.459714 105.973604 
L 1108.040583 106.830291 
L 1107.56111 107.686978 
L 1107.07696 108.543665 
L 1106.648105 109.400353 
L 1106.302913 110.25704 
L 1106.031171 111.113727 
L 1105.80142 111.970414 
L 1105.584563 112.827101 
L 1105.368985 113.683789 
L 1105.1599 114.540476 
L 1104.965776 115.397163 
L 1104.785225 116.25385 
L 1104.607231 117.110537 
L 1104.423612 117.967225 
L 1104.23996 118.823912 
L 1104.073503 119.680599 
L 1103.940354 120.537286 
L 1103.845133 121.393973 
L 1103.781658 122.25066 
L 1103.740411 123.107348 
L 1103.713605 123.964035 
L 1103.695498 124.820722 
L 1103.681765 125.677409 
L 1103.670068 126.534096 
L 1103.660288 127.390784 
L 1103.653169 128.247471 
L 1103.648535 129.104158 
L 1103.64496 129.960845 
z
" clip-path="url(#pf82febd598)" style="fill: #4682b4; fill-opacity: 0.7"/>
   </g>
   <g id="FillBetweenPolyCollection_12">
    <path d="M 1200.978153 129.954353 
L 1200.912391 129.954353 
L 1200.902051 129.029068 
L 1200.892865 128.103782 
L 1200.885288 127.178497 
L 1200.878278 126.253212 
L 1200.867714 125.327927 
L 1200.846232 124.402642 
L 1200.805709 123.477357 
L 1200.740863 122.552072 
L 1200.651539 121.626787 
L 1200.542507 120.701501 
L 1200.420263 119.776216 
L 1200.286814 118.850931 
L 1200.13413 117.925646 
L 1199.947828 117.000361 
L 1199.722336 116.075076 
L 1199.470891 115.149791 
L 1199.211779 114.224505 
L 1198.944096 113.29922 
L 1198.646554 112.373935 
L 1198.302666 111.44865 
L 1197.920556 110.523365 
L 1197.527207 109.59808 
L 1197.147559 108.672795 
L 1196.785669 107.74751 
L 1196.415558 106.822224 
L 1195.985148 105.896939 
L 1195.436717 104.971654 
L 1194.740798 104.046369 
L 1193.925857 103.121084 
L 1193.076606 102.195799 
L 1192.288911 101.270514 
L 1191.609285 100.345229 
L 1191.01271 99.419943 
L 1190.439096 98.494658 
L 1189.844868 97.569373 
L 1189.217787 96.644088 
L 1188.559384 95.718803 
L 1187.876341 94.793518 
L 1187.195033 93.868233 
L 1186.566702 92.942947 
L 1186.0264 92.017662 
L 1185.522984 91.092377 
L 1184.900338 90.167092 
L 1183.995107 89.241807 
L 1182.792645 88.316522 
L 1181.477716 87.391237 
L 1180.302717 86.465952 
L 1179.39913 85.540666 
L 1178.714378 84.615381 
L 1178.11168 83.690096 
L 1177.518731 82.764811 
L 1176.993255 81.839526 
L 1176.664695 80.914241 
L 1176.61543 79.988956 
L 1176.809473 79.06367 
L 1177.136543 78.138385 
L 1177.534959 77.2131 
L 1178.068466 76.287815 
L 1178.868103 75.36253 
L 1180.006933 74.437245 
L 1181.454897 73.51196 
L 1183.131491 72.586675 
L 1184.942447 71.661389 
L 1186.766158 70.736104 
L 1188.474145 69.810819 
L 1190.006822 68.885534 
L 1191.406371 67.960249 
L 1192.743797 67.034964 
L 1194.022676 66.109679 
L 1195.182934 65.184393 
L 1196.185431 64.259108 
L 1197.043347 63.333823 
L 1197.770972 62.408538 
L 1198.356902 61.483253 
L 1198.801251 60.557968 
L 1199.138514 59.632683 
L 1199.410394 58.707398 
L 1199.64033 57.782112 
L 1199.839353 56.856827 
L 1200.017401 55.931542 
L 1200.181098 55.006257 
L 1200.328869 54.080972 
L 1200.45443 53.155687 
L 1200.553979 52.230402 
L 1200.628854 51.305116 
L 1200.684065 50.379831 
L 1200.727148 49.454546 
L 1200.766476 48.529261 
L 1200.806804 47.603976 
L 1200.8464 46.678691 
L 1200.880262 45.753406 
L 1200.905475 44.828121 
L 1200.922479 43.902835 
L 1200.93285 42.97755 
L 1200.937702 42.052265 
L 1200.937915 41.12698 
L 1200.934981 40.201695 
L 1200.93138 39.27641 
L 1200.929803 38.351125 
L 1200.96074 38.351125 
L 1200.96074 38.351125 
L 1200.959163 39.27641 
L 1200.955562 40.201695 
L 1200.952629 41.12698 
L 1200.952841 42.052265 
L 1200.957693 42.97755 
L 1200.968065 43.902835 
L 1200.985068 44.828121 
L 1201.010281 45.753406 
L 1201.044144 46.678691 
L 1201.08374 47.603976 
L 1201.124068 48.529261 
L 1201.163395 49.454546 
L 1201.206479 50.379831 
L 1201.261689 51.305116 
L 1201.336564 52.230402 
L 1201.436113 53.155687 
L 1201.561674 54.080972 
L 1201.709445 55.006257 
L 1201.873143 55.931542 
L 1202.051191 56.856827 
L 1202.250213 57.782112 
L 1202.480149 58.707398 
L 1202.75203 59.632683 
L 1203.089292 60.557968 
L 1203.533641 61.483253 
L 1204.119571 62.408538 
L 1204.847196 63.333823 
L 1205.705113 64.259108 
L 1206.70761 65.184393 
L 1207.867868 66.109679 
L 1209.146746 67.034964 
L 1210.484173 67.960249 
L 1211.883722 68.885534 
L 1213.416399 69.810819 
L 1215.124386 70.736104 
L 1216.948096 71.661389 
L 1218.759053 72.586675 
L 1220.435647 73.51196 
L 1221.88361 74.437245 
L 1223.02244 75.36253 
L 1223.822077 76.287815 
L 1224.355585 77.2131 
L 1224.754 78.138385 
L 1225.08107 79.06367 
L 1225.275114 79.988956 
L 1225.225848 80.914241 
L 1224.897288 81.839526 
L 1224.371812 82.764811 
L 1223.778863 83.690096 
L 1223.176165 84.615381 
L 1222.491413 85.540666 
L 1221.587827 86.465952 
L 1220.412827 87.391237 
L 1219.097899 88.316522 
L 1217.895437 89.241807 
L 1216.990205 90.167092 
L 1216.367559 91.092377 
L 1215.864143 92.017662 
L 1215.323841 92.942947 
L 1214.69551 93.868233 
L 1214.014203 94.793518 
L 1213.331159 95.718803 
L 1212.672757 96.644088 
L 1212.045675 97.569373 
L 1211.451447 98.494658 
L 1210.877833 99.419943 
L 1210.281258 100.345229 
L 1209.601633 101.270514 
L 1208.813938 102.195799 
L 1207.964686 103.121084 
L 1207.149745 104.046369 
L 1206.453827 104.971654 
L 1205.905395 105.896939 
L 1205.474986 106.822224 
L 1205.104875 107.74751 
L 1204.742984 108.672795 
L 1204.363336 109.59808 
L 1203.969988 110.523365 
L 1203.587878 111.44865 
L 1203.243989 112.373935 
L 1202.946448 113.29922 
L 1202.678765 114.224505 
L 1202.419652 115.149791 
L 1202.168207 116.075076 
L 1201.942716 117.000361 
L 1201.756413 117.925646 
L 1201.603729 118.850931 
L 1201.47028 119.776216 
L 1201.348037 120.701501 
L 1201.239005 121.626787 
L 1201.149681 122.552072 
L 1201.084835 123.477357 
L 1201.044312 124.402642 
L 1201.022829 125.327927 
L 1201.012266 126.253212 
L 1201.005255 127.178497 
L 1200.997679 128.103782 
L 1200.988493 129.029068 
L 1200.978153 129.954353 
z
" clip-path="url(#pf82febd598)" style="fill: #4682b4; fill-opacity: 0.7"/>
   </g>
   <g id="matplotlib.axis_1">
    <g id="xtick_1">
     <g id="line2d_1">
      <defs>
       <path id="m9045f8a6b1" d="M 0 0 
L 0 3.5 
" style="stroke: #000000; stroke-width: 0.8"/>
      </defs>
      <g>
       <use xlink:href="#m9045f8a6b1" x="130.432228" y="374.901281" style="stroke: #000000; stroke-width: 0.8"/>
      </g>
     </g>
     <g id="text_1">
      <!-- 25 -->
      <g transform="translate(119.963733 396.272121) rotate(-45) scale(0.1 -0.1)">
       <defs>
        <path id="DejaVuSans-32" d="M 1228 531 
L 3431 531 
L 3431 0 
L 469 0 
L 469 531 
Q 828 903 1448 1529 
Q 2069 2156 2228 2338 
Q 2531 2678 2651 2914 
Q 2772 3150 2772 3378 
Q 2772 3750 2511 3984 
Q 2250 4219 1831 4219 
Q 1534 4219 1204 4116 
Q 875 4013 500 3803 
L 500 4441 
Q 881 4594 1212 4672 
Q 1544 4750 1819 4750 
Q 2544 4750 2975 4387 
Q 3406 4025 3406 3419 
Q 3406 3131 3298 2873 
Q 3191 2616 2906 2266 
Q 2828 2175 2409 1742 
Q 1991 1309 1228 531 
z
" transform="scale(0.015625)"/>
        <path id="DejaVuSans-35" d="M 691 4666 
L 3169 4666 
L 3169 4134 
L 1269 4134 
L 1269 2991 
Q 1406 3038 1543 3061 
Q 1681 3084 1819 3084 
Q 2600 3084 3056 2656 
Q 3513 2228 3513 1497 
Q 3513 744 3044 326 
Q 2575 -91 1722 -91 
Q 1428 -91 1123 -41 
Q 819 9 494 109 
L 494 744 
Q 775 591 1075 516 
Q 1375 441 1709 441 
Q 2250 441 2565 725 
Q 2881 1009 2881 1497 
Q 2881 1984 2565 2268 
Q 2250 2553 1709 2553 
Q 1456 2553 1204 2497 
Q 953 2441 691 2322 
L 691 4666 
z
" transform="scale(0.015625)"/>
       </defs>
       <use xlink:href="#DejaVuSans-32"/>
       <use xlink:href="#DejaVuSans-35" transform="translate(63.623047 0)"/>
      </g>
     </g>
    </g>
    <g id="xtick_2">
     <g id="line2d_2">
      <g>
       <use xlink:href="#m9045f8a6b1" x="227.751596" y="374.901281" style="stroke: #000000; stroke-width: 0.8"/>
      </g>
     </g>
     <g id="text_2">
      <!-- 50 -->
      <g transform="translate(217.283101 396.272121) rotate(-45) scale(0.1 -0.1)">
       <defs>
        <path id="DejaVuSans-30" d="M 2034 4250 
Q 1547 4250 1301 3770 
Q 1056 3291 1056 2328 
Q 1056 1369 1301 889 
Q 1547 409 2034 409 
Q 2525 409 2770 889 
Q 3016 1369 3016 2328 
Q 3016 3291 2770 3770 
Q 2525 4250 2034 4250 
z
M 2034 4750 
Q 2819 4750 3233 4129 
Q 3647 3509 3647 2328 
Q 3647 1150 3233 529 
Q 2819 -91 2034 -91 
Q 1250 -91 836 529 
Q 422 1150 422 2328 
Q 422 3509 836 4129 
Q 1250 4750 2034 4750 
z
" transform="scale(0.015625)"/>
       </defs>
       <use xlink:href="#DejaVuSans-35"/>
       <use xlink:href="#DejaVuSans-30" transform="translate(63.623047 0)"/>
      </g>
     </g>
    </g>
    <g id="xtick_3">
     <g id="line2d_3">
      <g>
       <use xlink:href="#m9045f8a6b1" x="325.070963" y="374.901281" style="stroke: #000000; stroke-width: 0.8"/>
      </g>
     </g>
     <g id="text_3">
      <!-- 75 -->
      <g transform="translate(314.602469 396.272121) rotate(-45) scale(0.1 -0.1)">
       <defs>
        <path id="DejaVuSans-37" d="M 525 4666 
L 3525 4666 
L 3525 4397 
L 1831 0 
L 1172 0 
L 2766 4134 
L 525 4134 
L 525 4666 
z
" transform="scale(0.015625)"/>
       </defs>
       <use xlink:href="#DejaVuSans-37"/>
       <use xlink:href="#DejaVuSans-35" transform="translate(63.623047 0)"/>
      </g>
     </g>
    </g>
    <g id="xtick_4">
     <g id="line2d_4">
      <g>
       <use xlink:href="#m9045f8a6b1" x="422.390331" y="374.901281" style="stroke: #000000; stroke-width: 0.8"/>
      </g>
     </g>
     <g id="text_4">
      <!-- 100 -->
      <g transform="translate(407.422869 400.771088) rotate(-45) scale(0.1 -0.1)">
       <defs>
        <path id="DejaVuSans-31" d="M 794 531 
L 1825 531 
L 1825 4091 
L 703 3866 
L 703 4441 
L 1819 4666 
L 2450 4666 
L 2450 531 
L 3481 531 
L 3481 0 
L 794 0 
L 794 531 
z
" transform="scale(0.015625)"/>
       </defs>
       <use xlink:href="#DejaVuSans-31"/>
       <use xlink:href="#DejaVuSans-30" transform="translate(63.623047 0)"/>
       <use xlink:href="#DejaVuSans-30" transform="translate(127.246094 0)"/>
      </g>
     </g>
    </g>
    <g id="xtick_5">
     <g id="line2d_5">
      <g>
       <use xlink:href="#m9045f8a6b1" x="519.709699" y="374.901281" style="stroke: #000000; stroke-width: 0.8"/>
      </g>
     </g>
     <g id="text_5">
      <!-- 125 -->
      <g transform="translate(504.742237 400.771088) rotate(-45) scale(0.1 -0.1)">
       <use xlink:href="#DejaVuSans-31"/>
       <use xlink:href="#DejaVuSans-32" transform="translate(63.623047 0)"/>
       <use xlink:href="#DejaVuSans-35" transform="translate(127.246094 0)"/>
      </g>
     </g>
    </g>
    <g id="xtick_6">
     <g id="line2d_6">
      <g>
       <use xlink:href="#m9045f8a6b1" x="617.029066" y="374.901281" style="stroke: #000000; stroke-width: 0.8"/>
      </g>
     </g>
     <g id="text_6">
      <!-- 150 -->
      <g transform="translate(602.061604 400.771088) rotate(-45) scale(0.1 -0.1)">
       <use xlink:href="#DejaVuSans-31"/>
       <use xlink:href="#DejaVuSans-35" transform="translate(63.623047 0)"/>
       <use xlink:href="#DejaVuSans-30" transform="translate(127.246094 0)"/>
      </g>
     </g>
    </g>
    <g id="xtick_7">
     <g id="line2d_7">
      <g>
       <use xlink:href="#m9045f8a6b1" x="714.348434" y="374.901281" style="stroke: #000000; stroke-width: 0.8"/>
      </g>
     </g>
     <g id="text_7">
      <!-- 175 -->
      <g transform="translate(699.380972 400.771088) rotate(-45) scale(0.1 -0.1)">
       <use xlink:href="#DejaVuSans-31"/>
       <use xlink:href="#DejaVuSans-37" transform="translate(63.623047 0)"/>
       <use xlink:href="#DejaVuSans-35" transform="translate(127.246094 0)"/>
      </g>
     </g>
    </g>
    <g id="xtick_8">
     <g id="line2d_8">
      <g>
       <use xlink:href="#m9045f8a6b1" x="811.667801" y="374.901281" style="stroke: #000000; stroke-width: 0.8"/>
      </g>
     </g>
     <g id="text_8">
      <!-- 200 -->
      <g transform="translate(796.70034 400.771088) rotate(-45) scale(0.1 -0.1)">
       <use xlink:href="#DejaVuSans-32"/>
       <use xlink:href="#DejaVuSans-30" transform="translate(63.623047 0)"/>
       <use xlink:href="#DejaVuSans-30" transform="translate(127.246094 0)"/>
      </g>
     </g>
    </g>
    <g id="xtick_9">
     <g id="line2d_9">
      <g>
       <use xlink:href="#m9045f8a6b1" x="908.987169" y="374.901281" style="stroke: #000000; stroke-width: 0.8"/>
      </g>
     </g>
     <g id="text_9">
      <!-- 225 -->
      <g transform="translate(894.019707 400.771088) rotate(-45) scale(0.1 -0.1)">
       <use xlink:href="#DejaVuSans-32"/>
       <use xlink:href="#DejaVuSans-32" transform="translate(63.623047 0)"/>
       <use xlink:href="#DejaVuSans-35" transform="translate(127.246094 0)"/>
      </g>
     </g>
    </g>
    <g id="xtick_10">
     <g id="line2d_10">
      <g>
       <use xlink:href="#m9045f8a6b1" x="1006.306537" y="374.901281" style="stroke: #000000; stroke-width: 0.8"/>
      </g>
     </g>
     <g id="text_10">
      <!-- 250 -->
      <g transform="translate(991.339075 400.771088) rotate(-45) scale(0.1 -0.1)">
       <use xlink:href="#DejaVuSans-32"/>
       <use xlink:href="#DejaVuSans-35" transform="translate(63.623047 0)"/>
       <use xlink:href="#DejaVuSans-30" transform="translate(127.246094 0)"/>
      </g>
     </g>
    </g>
    <g id="xtick_11">
     <g id="line2d_11">
      <g>
       <use xlink:href="#m9045f8a6b1" x="1103.625904" y="374.901281" style="stroke: #000000; stroke-width: 0.8"/>
      </g>
     </g>
     <g id="text_11">
      <!-- 275 -->
      <g transform="translate(1088.658442 400.771088) rotate(-45) scale(0.1 -0.1)">
       <use xlink:href="#DejaVuSans-32"/>
       <use xlink:href="#DejaVuSans-37" transform="translate(63.623047 0)"/>
       <use xlink:href="#DejaVuSans-35" transform="translate(127.246094 0)"/>
      </g>
     </g>
    </g>
    <g id="xtick_12">
     <g id="line2d_12">
      <g>
       <use xlink:href="#m9045f8a6b1" x="1200.945272" y="374.901281" style="stroke: #000000; stroke-width: 0.8"/>
      </g>
     </g>
     <g id="text_12">
      <!-- 300 -->
      <g transform="translate(1185.97781 400.771088) rotate(-45) scale(0.1 -0.1)">
       <defs>
        <path id="DejaVuSans-33" d="M 2597 2516 
Q 3050 2419 3304 2112 
Q 3559 1806 3559 1356 
Q 3559 666 3084 287 
Q 2609 -91 1734 -91 
Q 1441 -91 1130 -33 
Q 819 25 488 141 
L 488 750 
Q 750 597 1062 519 
Q 1375 441 1716 441 
Q 2309 441 2620 675 
Q 2931 909 2931 1356 
Q 2931 1769 2642 2001 
Q 2353 2234 1838 2234 
L 1294 2234 
L 1294 2753 
L 1863 2753 
Q 2328 2753 2575 2939 
Q 2822 3125 2822 3475 
Q 2822 3834 2567 4026 
Q 2313 4219 1838 4219 
Q 1578 4219 1281 4162 
Q 984 4106 628 3988 
L 628 4550 
Q 988 4650 1302 4700 
Q 1616 4750 1894 4750 
Q 2613 4750 3031 4423 
Q 3450 4097 3450 3541 
Q 3450 3153 3228 2886 
Q 3006 2619 2597 2516 
z
" transform="scale(0.015625)"/>
       </defs>
       <use xlink:href="#DejaVuSans-33"/>
       <use xlink:href="#DejaVuSans-30" transform="translate(63.623047 0)"/>
       <use xlink:href="#DejaVuSans-30" transform="translate(127.246094 0)"/>
      </g>
     </g>
    </g>
    <g id="text_13">
     <!-- n_estimators -->
     <g transform="translate(633.375469 413.840087) scale(0.1 -0.1)">
      <defs>
       <path id="DejaVuSans-6e" d="M 3513 2113 
L 3513 0 
L 2938 0 
L 2938 2094 
Q 2938 2591 2744 2837 
Q 2550 3084 2163 3084 
Q 1697 3084 1428 2787 
Q 1159 2491 1159 1978 
L 1159 0 
L 581 0 
L 581 3500 
L 1159 3500 
L 1159 2956 
Q 1366 3272 1645 3428 
Q 1925 3584 2291 3584 
Q 2894 3584 3203 3211 
Q 3513 2838 3513 2113 
z
" transform="scale(0.015625)"/>
       <path id="DejaVuSans-5f" d="M 3263 -1063 
L 3263 -1509 
L -63 -1509 
L -63 -1063 
L 3263 -1063 
z
" transform="scale(0.015625)"/>
       <path id="DejaVuSans-65" d="M 3597 1894 
L 3597 1613 
L 953 1613 
Q 991 1019 1311 708 
Q 1631 397 2203 397 
Q 2534 397 2845 478 
Q 3156 559 3463 722 
L 3463 178 
Q 3153 47 2828 -22 
Q 2503 -91 2169 -91 
Q 1331 -91 842 396 
Q 353 884 353 1716 
Q 353 2575 817 3079 
Q 1281 3584 2069 3584 
Q 2775 3584 3186 3129 
Q 3597 2675 3597 1894 
z
M 3022 2063 
Q 3016 2534 2758 2815 
Q 2500 3097 2075 3097 
Q 1594 3097 1305 2825 
Q 1016 2553 972 2059 
L 3022 2063 
z
" transform="scale(0.015625)"/>
       <path id="DejaVuSans-73" d="M 2834 3397 
L 2834 2853 
Q 2591 2978 2328 3040 
Q 2066 3103 1784 3103 
Q 1356 3103 1142 2972 
Q 928 2841 928 2578 
Q 928 2378 1081 2264 
Q 1234 2150 1697 2047 
L 1894 2003 
Q 2506 1872 2764 1633 
Q 3022 1394 3022 966 
Q 3022 478 2636 193 
Q 2250 -91 1575 -91 
Q 1294 -91 989 -36 
Q 684 19 347 128 
L 347 722 
Q 666 556 975 473 
Q 1284 391 1588 391 
Q 1994 391 2212 530 
Q 2431 669 2431 922 
Q 2431 1156 2273 1281 
Q 2116 1406 1581 1522 
L 1381 1569 
Q 847 1681 609 1914 
Q 372 2147 372 2553 
Q 372 3047 722 3315 
Q 1072 3584 1716 3584 
Q 2034 3584 2315 3537 
Q 2597 3491 2834 3397 
z
" transform="scale(0.015625)"/>
       <path id="DejaVuSans-74" d="M 1172 4494 
L 1172 3500 
L 2356 3500 
L 2356 3053 
L 1172 3053 
L 1172 1153 
Q 1172 725 1289 603 
Q 1406 481 1766 481 
L 2356 481 
L 2356 0 
L 1766 0 
Q 1100 0 847 248 
Q 594 497 594 1153 
L 594 3053 
L 172 3053 
L 172 3500 
L 594 3500 
L 594 4494 
L 1172 4494 
z
" transform="scale(0.015625)"/>
       <path id="DejaVuSans-69" d="M 603 3500 
L 1178 3500 
L 1178 0 
L 603 0 
L 603 3500 
z
M 603 4863 
L 1178 4863 
L 1178 4134 
L 603 4134 
L 603 4863 
z
" transform="scale(0.015625)"/>
       <path id="DejaVuSans-6d" d="M 3328 2828 
Q 3544 3216 3844 3400 
Q 4144 3584 4550 3584 
Q 5097 3584 5394 3201 
Q 5691 2819 5691 2113 
L 5691 0 
L 5113 0 
L 5113 2094 
Q 5113 2597 4934 2840 
Q 4756 3084 4391 3084 
Q 3944 3084 3684 2787 
Q 3425 2491 3425 1978 
L 3425 0 
L 2847 0 
L 2847 2094 
Q 2847 2600 2669 2842 
Q 2491 3084 2119 3084 
Q 1678 3084 1418 2786 
Q 1159 2488 1159 1978 
L 1159 0 
L 581 0 
L 581 3500 
L 1159 3500 
L 1159 2956 
Q 1356 3278 1631 3431 
Q 1906 3584 2284 3584 
Q 2666 3584 2933 3390 
Q 3200 3197 3328 2828 
z
" transform="scale(0.015625)"/>
       <path id="DejaVuSans-61" d="M 2194 1759 
Q 1497 1759 1228 1600 
Q 959 1441 959 1056 
Q 959 750 1161 570 
Q 1363 391 1709 391 
Q 2188 391 2477 730 
Q 2766 1069 2766 1631 
L 2766 1759 
L 2194 1759 
z
M 3341 1997 
L 3341 0 
L 2766 0 
L 2766 531 
Q 2569 213 2275 61 
Q 1981 -91 1556 -91 
Q 1019 -91 701 211 
Q 384 513 384 1019 
Q 384 1609 779 1909 
Q 1175 2209 1959 2209 
L 2766 2209 
L 2766 2266 
Q 2766 2663 2505 2880 
Q 2244 3097 1772 3097 
Q 1472 3097 1187 3025 
Q 903 2953 641 2809 
L 641 3341 
Q 956 3463 1253 3523 
Q 1550 3584 1831 3584 
Q 2591 3584 2966 3190 
Q 3341 2797 3341 1997 
z
" transform="scale(0.015625)"/>
       <path id="DejaVuSans-6f" d="M 1959 3097 
Q 1497 3097 1228 2736 
Q 959 2375 959 1747 
Q 959 1119 1226 758 
Q 1494 397 1959 397 
Q 2419 397 2687 759 
Q 2956 1122 2956 1747 
Q 2956 2369 2687 2733 
Q 2419 3097 1959 3097 
z
M 1959 3584 
Q 2709 3584 3137 3096 
Q 3566 2609 3566 1747 
Q 3566 888 3137 398 
Q 2709 -91 1959 -91 
Q 1206 -91 779 398 
Q 353 888 353 1747 
Q 353 2609 779 3096 
Q 1206 3584 1959 3584 
z
" transform="scale(0.015625)"/>
       <path id="DejaVuSans-72" d="M 2631 2963 
Q 2534 3019 2420 3045 
Q 2306 3072 2169 3072 
Q 1681 3072 1420 2755 
Q 1159 2438 1159 1844 
L 1159 0 
L 581 0 
L 581 3500 
L 1159 3500 
L 1159 2956 
Q 1341 3275 1631 3429 
Q 1922 3584 2338 3584 
Q 2397 3584 2469 3576 
Q 2541 3569 2628 3553 
L 2631 2963 
z
" transform="scale(0.015625)"/>
      </defs>
      <use xlink:href="#DejaVuSans-6e"/>
      <use xlink:href="#DejaVuSans-5f" transform="translate(63.378906 0)"/>
      <use xlink:href="#DejaVuSans-65" transform="translate(113.378906 0)"/>
      <use xlink:href="#DejaVuSans-73" transform="translate(174.902344 0)"/>
      <use xlink:href="#DejaVuSans-74" transform="translate(227.001953 0)"/>
      <use xlink:href="#DejaVuSans-69" transform="translate(266.210938 0)"/>
      <use xlink:href="#DejaVuSans-6d" transform="translate(293.994141 0)"/>
      <use xlink:href="#DejaVuSans-61" transform="translate(391.40625 0)"/>
      <use xlink:href="#DejaVuSans-74" transform="translate(452.685547 0)"/>
      <use xlink:href="#DejaVuSans-6f" transform="translate(491.894531 0)"/>
      <use xlink:href="#DejaVuSans-72" transform="translate(553.076172 0)"/>
      <use xlink:href="#DejaVuSans-73" transform="translate(594.189453 0)"/>
     </g>
    </g>
   </g>
   <g id="matplotlib.axis_2">
    <g id="ytick_1">
     <g id="line2d_13">
      <defs>
       <path id="me7250a97f3" d="M 0 0 
L -3.5 0 
" style="stroke: #000000; stroke-width: 0.8"/>
      </defs>
      <g>
       <use xlink:href="#me7250a97f3" x="50.14375" y="356.060908" style="stroke: #000000; stroke-width: 0.8"/>
      </g>
     </g>
     <g id="text_14">
      <!-- 0.74 -->
      <g transform="translate(20.878125 359.860126) scale(0.1 -0.1)">
       <defs>
        <path id="DejaVuSans-2e" d="M 684 794 
L 1344 794 
L 1344 0 
L 684 0 
L 684 794 
z
" transform="scale(0.015625)"/>
        <path id="DejaVuSans-34" d="M 2419 4116 
L 825 1625 
L 2419 1625 
L 2419 4116 
z
M 2253 4666 
L 3047 4666 
L 3047 1625 
L 3713 1625 
L 3713 1100 
L 3047 1100 
L 3047 0 
L 2419 0 
L 2419 1100 
L 313 1100 
L 313 1709 
L 2253 4666 
z
" transform="scale(0.015625)"/>
       </defs>
       <use xlink:href="#DejaVuSans-30"/>
       <use xlink:href="#DejaVuSans-2e" transform="translate(63.623047 0)"/>
       <use xlink:href="#DejaVuSans-37" transform="translate(95.410156 0)"/>
       <use xlink:href="#DejaVuSans-34" transform="translate(159.033203 0)"/>
      </g>
     </g>
    </g>
    <g id="ytick_2">
     <g id="line2d_14">
      <g>
       <use xlink:href="#me7250a97f3" x="50.14375" y="311.66363" style="stroke: #000000; stroke-width: 0.8"/>
      </g>
     </g>
     <g id="text_15">
      <!-- 0.76 -->
      <g transform="translate(20.878125 315.462848) scale(0.1 -0.1)">
       <defs>
        <path id="DejaVuSans-36" d="M 2113 2584 
Q 1688 2584 1439 2293 
Q 1191 2003 1191 1497 
Q 1191 994 1439 701 
Q 1688 409 2113 409 
Q 2538 409 2786 701 
Q 3034 994 3034 1497 
Q 3034 2003 2786 2293 
Q 2538 2584 2113 2584 
z
M 3366 4563 
L 3366 3988 
Q 3128 4100 2886 4159 
Q 2644 4219 2406 4219 
Q 1781 4219 1451 3797 
Q 1122 3375 1075 2522 
Q 1259 2794 1537 2939 
Q 1816 3084 2150 3084 
Q 2853 3084 3261 2657 
Q 3669 2231 3669 1497 
Q 3669 778 3244 343 
Q 2819 -91 2113 -91 
Q 1303 -91 875 529 
Q 447 1150 447 2328 
Q 447 3434 972 4092 
Q 1497 4750 2381 4750 
Q 2619 4750 2861 4703 
Q 3103 4656 3366 4563 
z
" transform="scale(0.015625)"/>
       </defs>
       <use xlink:href="#DejaVuSans-30"/>
       <use xlink:href="#DejaVuSans-2e" transform="translate(63.623047 0)"/>
       <use xlink:href="#DejaVuSans-37" transform="translate(95.410156 0)"/>
       <use xlink:href="#DejaVuSans-36" transform="translate(159.033203 0)"/>
      </g>
     </g>
    </g>
    <g id="ytick_3">
     <g id="line2d_15">
      <g>
       <use xlink:href="#me7250a97f3" x="50.14375" y="267.266352" style="stroke: #000000; stroke-width: 0.8"/>
      </g>
     </g>
     <g id="text_16">
      <!-- 0.78 -->
      <g transform="translate(20.878125 271.06557) scale(0.1 -0.1)">
       <defs>
        <path id="DejaVuSans-38" d="M 2034 2216 
Q 1584 2216 1326 1975 
Q 1069 1734 1069 1313 
Q 1069 891 1326 650 
Q 1584 409 2034 409 
Q 2484 409 2743 651 
Q 3003 894 3003 1313 
Q 3003 1734 2745 1975 
Q 2488 2216 2034 2216 
z
M 1403 2484 
Q 997 2584 770 2862 
Q 544 3141 544 3541 
Q 544 4100 942 4425 
Q 1341 4750 2034 4750 
Q 2731 4750 3128 4425 
Q 3525 4100 3525 3541 
Q 3525 3141 3298 2862 
Q 3072 2584 2669 2484 
Q 3125 2378 3379 2068 
Q 3634 1759 3634 1313 
Q 3634 634 3220 271 
Q 2806 -91 2034 -91 
Q 1263 -91 848 271 
Q 434 634 434 1313 
Q 434 1759 690 2068 
Q 947 2378 1403 2484 
z
M 1172 3481 
Q 1172 3119 1398 2916 
Q 1625 2713 2034 2713 
Q 2441 2713 2670 2916 
Q 2900 3119 2900 3481 
Q 2900 3844 2670 4047 
Q 2441 4250 2034 4250 
Q 1625 4250 1398 4047 
Q 1172 3844 1172 3481 
z
" transform="scale(0.015625)"/>
       </defs>
       <use xlink:href="#DejaVuSans-30"/>
       <use xlink:href="#DejaVuSans-2e" transform="translate(63.623047 0)"/>
       <use xlink:href="#DejaVuSans-37" transform="translate(95.410156 0)"/>
       <use xlink:href="#DejaVuSans-38" transform="translate(159.033203 0)"/>
      </g>
     </g>
    </g>
    <g id="ytick_4">
     <g id="line2d_16">
      <g>
       <use xlink:href="#me7250a97f3" x="50.14375" y="222.869074" style="stroke: #000000; stroke-width: 0.8"/>
      </g>
     </g>
     <g id="text_17">
      <!-- 0.80 -->
      <g transform="translate(20.878125 226.668292) scale(0.1 -0.1)">
       <use xlink:href="#DejaVuSans-30"/>
       <use xlink:href="#DejaVuSans-2e" transform="translate(63.623047 0)"/>
       <use xlink:href="#DejaVuSans-38" transform="translate(95.410156 0)"/>
       <use xlink:href="#DejaVuSans-30" transform="translate(159.033203 0)"/>
      </g>
     </g>
    </g>
    <g id="ytick_5">
     <g id="line2d_17">
      <g>
       <use xlink:href="#me7250a97f3" x="50.14375" y="178.471796" style="stroke: #000000; stroke-width: 0.8"/>
      </g>
     </g>
     <g id="text_18">
      <!-- 0.82 -->
      <g transform="translate(20.878125 182.271014) scale(0.1 -0.1)">
       <use xlink:href="#DejaVuSans-30"/>
       <use xlink:href="#DejaVuSans-2e" transform="translate(63.623047 0)"/>
       <use xlink:href="#DejaVuSans-38" transform="translate(95.410156 0)"/>
       <use xlink:href="#DejaVuSans-32" transform="translate(159.033203 0)"/>
      </g>
     </g>
    </g>
    <g id="ytick_6">
     <g id="line2d_18">
      <g>
       <use xlink:href="#me7250a97f3" x="50.14375" y="134.074518" style="stroke: #000000; stroke-width: 0.8"/>
      </g>
     </g>
     <g id="text_19">
      <!-- 0.84 -->
      <g transform="translate(20.878125 137.873737) scale(0.1 -0.1)">
       <use xlink:href="#DejaVuSans-30"/>
       <use xlink:href="#DejaVuSans-2e" transform="translate(63.623047 0)"/>
       <use xlink:href="#DejaVuSans-38" transform="translate(95.410156 0)"/>
       <use xlink:href="#DejaVuSans-34" transform="translate(159.033203 0)"/>
      </g>
     </g>
    </g>
    <g id="ytick_7">
     <g id="line2d_19">
      <g>
       <use xlink:href="#me7250a97f3" x="50.14375" y="89.67724" style="stroke: #000000; stroke-width: 0.8"/>
      </g>
     </g>
     <g id="text_20">
      <!-- 0.86 -->
      <g transform="translate(20.878125 93.476459) scale(0.1 -0.1)">
       <use xlink:href="#DejaVuSans-30"/>
       <use xlink:href="#DejaVuSans-2e" transform="translate(63.623047 0)"/>
       <use xlink:href="#DejaVuSans-38" transform="translate(95.410156 0)"/>
       <use xlink:href="#DejaVuSans-36" transform="translate(159.033203 0)"/>
      </g>
     </g>
    </g>
    <g id="ytick_8">
     <g id="line2d_20">
      <g>
       <use xlink:href="#me7250a97f3" x="50.14375" y="45.279962" style="stroke: #000000; stroke-width: 0.8"/>
      </g>
     </g>
     <g id="text_21">
      <!-- 0.88 -->
      <g transform="translate(20.878125 49.079181) scale(0.1 -0.1)">
       <use xlink:href="#DejaVuSans-30"/>
       <use xlink:href="#DejaVuSans-2e" transform="translate(63.623047 0)"/>
       <use xlink:href="#DejaVuSans-38" transform="translate(95.410156 0)"/>
       <use xlink:href="#DejaVuSans-38" transform="translate(159.033203 0)"/>
      </g>
     </g>
    </g>
    <g id="text_22">
     <!-- mean_score -->
     <g transform="translate(14.520313 228.722203) rotate(-90) scale(0.1 -0.1)">
      <defs>
       <path id="DejaVuSans-63" d="M 3122 3366 
L 3122 2828 
Q 2878 2963 2633 3030 
Q 2388 3097 2138 3097 
Q 1578 3097 1268 2742 
Q 959 2388 959 1747 
Q 959 1106 1268 751 
Q 1578 397 2138 397 
Q 2388 397 2633 464 
Q 2878 531 3122 666 
L 3122 134 
Q 2881 22 2623 -34 
Q 2366 -91 2075 -91 
Q 1284 -91 818 406 
Q 353 903 353 1747 
Q 353 2603 823 3093 
Q 1294 3584 2113 3584 
Q 2378 3584 2631 3529 
Q 2884 3475 3122 3366 
z
" transform="scale(0.015625)"/>
      </defs>
      <use xlink:href="#DejaVuSans-6d"/>
      <use xlink:href="#DejaVuSans-65" transform="translate(97.412109 0)"/>
      <use xlink:href="#DejaVuSans-61" transform="translate(158.935547 0)"/>
      <use xlink:href="#DejaVuSans-6e" transform="translate(220.214844 0)"/>
      <use xlink:href="#DejaVuSans-5f" transform="translate(283.59375 0)"/>
      <use xlink:href="#DejaVuSans-73" transform="translate(333.59375 0)"/>
      <use xlink:href="#DejaVuSans-63" transform="translate(385.693359 0)"/>
      <use xlink:href="#DejaVuSans-6f" transform="translate(440.673828 0)"/>
      <use xlink:href="#DejaVuSans-72" transform="translate(501.855469 0)"/>
      <use xlink:href="#DejaVuSans-65" transform="translate(540.71875 0)"/>
     </g>
    </g>
   </g>
   <g id="LineCollection_1">
    <path d="M 118.267307 94.063417 
L 142.597149 94.063417 
" clip-path="url(#pf82febd598)" style="fill: none; stroke: #1f77b4; stroke-width: 1.5"/>
    <path d="M 215.586675 83.877843 
L 239.916517 83.877843 
" clip-path="url(#pf82febd598)" style="fill: none; stroke: #1f77b4; stroke-width: 1.5"/>
    <path d="M 312.906042 82.216662 
L 337.235884 82.216662 
" clip-path="url(#pf82febd598)" style="fill: none; stroke: #1f77b4; stroke-width: 1.5"/>
    <path d="M 410.22541 80.304192 
L 434.555252 80.304192 
" clip-path="url(#pf82febd598)" style="fill: none; stroke: #1f77b4; stroke-width: 1.5"/>
    <path d="M 507.544778 81.551196 
L 531.87462 81.551196 
" clip-path="url(#pf82febd598)" style="fill: none; stroke: #1f77b4; stroke-width: 1.5"/>
    <path d="M 604.864145 80.265036 
L 629.193987 80.265036 
" clip-path="url(#pf82febd598)" style="fill: none; stroke: #1f77b4; stroke-width: 1.5"/>
    <path d="M 702.183513 81.452398 
L 726.513355 81.452398 
" clip-path="url(#pf82febd598)" style="fill: none; stroke: #1f77b4; stroke-width: 1.5"/>
    <path d="M 799.50288 82.33256 
L 823.832722 82.33256 
" clip-path="url(#pf82febd598)" style="fill: none; stroke: #1f77b4; stroke-width: 1.5"/>
    <path d="M 896.822248 81.736228 
L 921.15209 81.736228 
" clip-path="url(#pf82febd598)" style="fill: none; stroke: #1f77b4; stroke-width: 1.5"/>
    <path d="M 994.141616 82.391659 
L 1018.471458 82.391659 
" clip-path="url(#pf82febd598)" style="fill: none; stroke: #1f77b4; stroke-width: 1.5"/>
    <path d="M 1091.460983 82.90897 
L 1115.790825 82.90897 
" clip-path="url(#pf82febd598)" style="fill: none; stroke: #1f77b4; stroke-width: 1.5"/>
    <path d="M 1188.780351 84.202454 
L 1213.110193 84.202454 
" clip-path="url(#pf82febd598)" style="fill: none; stroke: #1f77b4; stroke-width: 1.5"/>
   </g>
   <g id="LineCollection_2">
    <path d="M 118.267307 43.434782 
L 142.597149 43.434782 
" clip-path="url(#pf82febd598)" style="fill: none; stroke: #1f77b4; stroke-width: 1.5"/>
    <path d="M 215.586675 43.42829 
L 239.916517 43.42829 
" clip-path="url(#pf82febd598)" style="fill: none; stroke: #1f77b4; stroke-width: 1.5"/>
    <path d="M 312.906042 41.759707 
L 337.235884 41.759707 
" clip-path="url(#pf82febd598)" style="fill: none; stroke: #1f77b4; stroke-width: 1.5"/>
    <path d="M 410.22541 41.733737 
L 434.555252 41.733737 
" clip-path="url(#pf82febd598)" style="fill: none; stroke: #1f77b4; stroke-width: 1.5"/>
    <path d="M 507.544778 45.129335 
L 531.87462 45.129335 
" clip-path="url(#pf82febd598)" style="fill: none; stroke: #1f77b4; stroke-width: 1.5"/>
    <path d="M 604.864145 40.045677 
L 629.193987 40.045677 
" clip-path="url(#pf82febd598)" style="fill: none; stroke: #1f77b4; stroke-width: 1.5"/>
    <path d="M 702.183513 38.344632 
L 726.513355 38.344632 
" clip-path="url(#pf82febd598)" style="fill: none; stroke: #1f77b4; stroke-width: 1.5"/>
    <path d="M 799.50288 40.045677 
L 823.832722 40.045677 
" clip-path="url(#pf82febd598)" style="fill: none; stroke: #1f77b4; stroke-width: 1.5"/>
    <path d="M 896.822248 41.733737 
L 921.15209 41.733737 
" clip-path="url(#pf82febd598)" style="fill: none; stroke: #1f77b4; stroke-width: 1.5"/>
    <path d="M 994.141616 45.148813 
L 1018.471458 45.148813 
" clip-path="url(#pf82febd598)" style="fill: none; stroke: #1f77b4; stroke-width: 1.5"/>
    <path d="M 1091.460983 45.148813 
L 1115.790825 45.148813 
" clip-path="url(#pf82febd598)" style="fill: none; stroke: #1f77b4; stroke-width: 1.5"/>
    <path d="M 1188.780351 38.351125 
L 1213.110193 38.351125 
" clip-path="url(#pf82febd598)" style="fill: none; stroke: #1f77b4; stroke-width: 1.5"/>
   </g>
   <g id="LineCollection_3">
    <path d="M 118.267307 358.874774 
L 142.597149 358.874774 
" clip-path="url(#pf82febd598)" style="fill: none; stroke: #1f77b4; stroke-width: 1.5"/>
    <path d="M 215.586675 358.874774 
L 239.916517 358.874774 
" clip-path="url(#pf82febd598)" style="fill: none; stroke: #1f77b4; stroke-width: 1.5"/>
    <path d="M 312.906042 184.193021 
L 337.235884 184.193021 
" clip-path="url(#pf82febd598)" style="fill: none; stroke: #1f77b4; stroke-width: 1.5"/>
    <path d="M 410.22541 129.941368 
L 434.555252 129.941368 
" clip-path="url(#pf82febd598)" style="fill: none; stroke: #1f77b4; stroke-width: 1.5"/>
    <path d="M 507.544778 128.2598 
L 531.87462 128.2598 
" clip-path="url(#pf82febd598)" style="fill: none; stroke: #1f77b4; stroke-width: 1.5"/>
    <path d="M 604.864145 126.578233 
L 629.193987 126.578233 
" clip-path="url(#pf82febd598)" style="fill: none; stroke: #1f77b4; stroke-width: 1.5"/>
    <path d="M 702.183513 129.97383 
L 726.513355 129.97383 
" clip-path="url(#pf82febd598)" style="fill: none; stroke: #1f77b4; stroke-width: 1.5"/>
    <path d="M 799.50288 124.877188 
L 823.832722 124.877188 
" clip-path="url(#pf82febd598)" style="fill: none; stroke: #1f77b4; stroke-width: 1.5"/>
    <path d="M 896.822248 131.674875 
L 921.15209 131.674875 
" clip-path="url(#pf82febd598)" style="fill: none; stroke: #1f77b4; stroke-width: 1.5"/>
    <path d="M 994.141616 128.279278 
L 1018.471458 128.279278 
" clip-path="url(#pf82febd598)" style="fill: none; stroke: #1f77b4; stroke-width: 1.5"/>
    <path d="M 1091.460983 129.960845 
L 1115.790825 129.960845 
" clip-path="url(#pf82febd598)" style="fill: none; stroke: #1f77b4; stroke-width: 1.5"/>
    <path d="M 1188.780351 129.954353 
L 1213.110193 129.954353 
" clip-path="url(#pf82febd598)" style="fill: none; stroke: #1f77b4; stroke-width: 1.5"/>
   </g>
   <g id="LineCollection_4">
    <path d="M 130.432228 358.874774 
L 130.432228 43.434782 
" clip-path="url(#pf82febd598)" style="fill: none; stroke: #1f77b4; stroke-width: 1.5"/>
    <path d="M 227.751596 358.874774 
L 227.751596 43.42829 
" clip-path="url(#pf82febd598)" style="fill: none; stroke: #1f77b4; stroke-width: 1.5"/>
    <path d="M 325.070963 184.193021 
L 325.070963 41.759707 
" clip-path="url(#pf82febd598)" style="fill: none; stroke: #1f77b4; stroke-width: 1.5"/>
    <path d="M 422.390331 129.941368 
L 422.390331 41.733737 
" clip-path="url(#pf82febd598)" style="fill: none; stroke: #1f77b4; stroke-width: 1.5"/>
    <path d="M 519.709699 128.2598 
L 519.709699 45.129335 
" clip-path="url(#pf82febd598)" style="fill: none; stroke: #1f77b4; stroke-width: 1.5"/>
    <path d="M 617.029066 126.578233 
L 617.029066 40.045677 
" clip-path="url(#pf82febd598)" style="fill: none; stroke: #1f77b4; stroke-width: 1.5"/>
    <path d="M 714.348434 129.97383 
L 714.348434 38.344632 
" clip-path="url(#pf82febd598)" style="fill: none; stroke: #1f77b4; stroke-width: 1.5"/>
    <path d="M 811.667801 124.877188 
L 811.667801 40.045677 
" clip-path="url(#pf82febd598)" style="fill: none; stroke: #1f77b4; stroke-width: 1.5"/>
    <path d="M 908.987169 131.674875 
L 908.987169 41.733737 
" clip-path="url(#pf82febd598)" style="fill: none; stroke: #1f77b4; stroke-width: 1.5"/>
    <path d="M 1006.306537 128.279278 
L 1006.306537 45.148813 
" clip-path="url(#pf82febd598)" style="fill: none; stroke: #1f77b4; stroke-width: 1.5"/>
    <path d="M 1103.625904 129.960845 
L 1103.625904 45.148813 
" clip-path="url(#pf82febd598)" style="fill: none; stroke: #1f77b4; stroke-width: 1.5"/>
    <path d="M 1200.945272 129.954353 
L 1200.945272 38.351125 
" clip-path="url(#pf82febd598)" style="fill: none; stroke: #1f77b4; stroke-width: 1.5"/>
   </g>
   <g id="LineCollection_5">
    <path d="M 118.267307 80.753895 
L 142.597149 80.753895 
" clip-path="url(#pf82febd598)" style="fill: none; stroke: #1f77b4; stroke-width: 1.5"/>
    <path d="M 215.586675 79.059342 
L 239.916517 79.059342 
" clip-path="url(#pf82febd598)" style="fill: none; stroke: #1f77b4; stroke-width: 1.5"/>
    <path d="M 312.906042 80.779865 
L 337.235884 80.779865 
" clip-path="url(#pf82febd598)" style="fill: none; stroke: #1f77b4; stroke-width: 1.5"/>
    <path d="M 410.22541 79.085312 
L 434.555252 79.085312 
" clip-path="url(#pf82febd598)" style="fill: none; stroke: #1f77b4; stroke-width: 1.5"/>
    <path d="M 507.544778 80.786357 
L 531.87462 80.786357 
" clip-path="url(#pf82febd598)" style="fill: none; stroke: #1f77b4; stroke-width: 1.5"/>
    <path d="M 604.864145 79.085312 
L 629.193987 79.085312 
" clip-path="url(#pf82febd598)" style="fill: none; stroke: #1f77b4; stroke-width: 1.5"/>
    <path d="M 702.183513 80.76688 
L 726.513355 80.76688 
" clip-path="url(#pf82febd598)" style="fill: none; stroke: #1f77b4; stroke-width: 1.5"/>
    <path d="M 799.50288 82.448447 
L 823.832722 82.448447 
" clip-path="url(#pf82febd598)" style="fill: none; stroke: #1f77b4; stroke-width: 1.5"/>
    <path d="M 896.822248 80.76688 
L 921.15209 80.76688 
" clip-path="url(#pf82febd598)" style="fill: none; stroke: #1f77b4; stroke-width: 1.5"/>
    <path d="M 994.141616 80.773372 
L 1018.471458 80.773372 
" clip-path="url(#pf82febd598)" style="fill: none; stroke: #1f77b4; stroke-width: 1.5"/>
    <path d="M 1091.460983 80.786357 
L 1115.790825 80.786357 
" clip-path="url(#pf82febd598)" style="fill: none; stroke: #1f77b4; stroke-width: 1.5"/>
    <path d="M 1188.780351 82.474417 
L 1213.110193 82.474417 
" clip-path="url(#pf82febd598)" style="fill: none; stroke: #1f77b4; stroke-width: 1.5"/>
   </g>
   <g id="patch_3">
    <path d="M 50.14375 374.901281 
L 50.14375 22.318125 
" style="fill: none; stroke: #000000; stroke-width: 0.8; stroke-linejoin: miter; stroke-linecap: square"/>
   </g>
   <g id="patch_4">
    <path d="M 1281.23375 374.901281 
L 1281.23375 22.318125 
" style="fill: none; stroke: #000000; stroke-width: 0.8; stroke-linejoin: miter; stroke-linecap: square"/>
   </g>
   <g id="patch_5">
    <path d="M 50.14375 374.901281 
L 1281.23375 374.901281 
" style="fill: none; stroke: #000000; stroke-width: 0.8; stroke-linejoin: miter; stroke-linecap: square"/>
   </g>
   <g id="patch_6">
    <path d="M 50.14375 22.318125 
L 1281.23375 22.318125 
" style="fill: none; stroke: #000000; stroke-width: 0.8; stroke-linejoin: miter; stroke-linecap: square"/>
   </g>
   <g id="text_23">
    <!-- mean_score distribution by n_estimators -->
    <g transform="translate(543.505312 16.318125) scale(0.12 -0.12)">
     <defs>
      <path id="DejaVuSans-20" transform="scale(0.015625)"/>
      <path id="DejaVuSans-64" d="M 2906 2969 
L 2906 4863 
L 3481 4863 
L 3481 0 
L 2906 0 
L 2906 525 
Q 2725 213 2448 61 
Q 2172 -91 1784 -91 
Q 1150 -91 751 415 
Q 353 922 353 1747 
Q 353 2572 751 3078 
Q 1150 3584 1784 3584 
Q 2172 3584 2448 3432 
Q 2725 3281 2906 2969 
z
M 947 1747 
Q 947 1113 1208 752 
Q 1469 391 1925 391 
Q 2381 391 2643 752 
Q 2906 1113 2906 1747 
Q 2906 2381 2643 2742 
Q 2381 3103 1925 3103 
Q 1469 3103 1208 2742 
Q 947 2381 947 1747 
z
" transform="scale(0.015625)"/>
      <path id="DejaVuSans-62" d="M 3116 1747 
Q 3116 2381 2855 2742 
Q 2594 3103 2138 3103 
Q 1681 3103 1420 2742 
Q 1159 2381 1159 1747 
Q 1159 1113 1420 752 
Q 1681 391 2138 391 
Q 2594 391 2855 752 
Q 3116 1113 3116 1747 
z
M 1159 2969 
Q 1341 3281 1617 3432 
Q 1894 3584 2278 3584 
Q 2916 3584 3314 3078 
Q 3713 2572 3713 1747 
Q 3713 922 3314 415 
Q 2916 -91 2278 -91 
Q 1894 -91 1617 61 
Q 1341 213 1159 525 
L 1159 0 
L 581 0 
L 581 4863 
L 1159 4863 
L 1159 2969 
z
" transform="scale(0.015625)"/>
      <path id="DejaVuSans-75" d="M 544 1381 
L 544 3500 
L 1119 3500 
L 1119 1403 
Q 1119 906 1312 657 
Q 1506 409 1894 409 
Q 2359 409 2629 706 
Q 2900 1003 2900 1516 
L 2900 3500 
L 3475 3500 
L 3475 0 
L 2900 0 
L 2900 538 
Q 2691 219 2414 64 
Q 2138 -91 1772 -91 
Q 1169 -91 856 284 
Q 544 659 544 1381 
z
M 1991 3584 
L 1991 3584 
z
" transform="scale(0.015625)"/>
      <path id="DejaVuSans-79" d="M 2059 -325 
Q 1816 -950 1584 -1140 
Q 1353 -1331 966 -1331 
L 506 -1331 
L 506 -850 
L 844 -850 
Q 1081 -850 1212 -737 
Q 1344 -625 1503 -206 
L 1606 56 
L 191 3500 
L 800 3500 
L 1894 763 
L 2988 3500 
L 3597 3500 
L 2059 -325 
z
" transform="scale(0.015625)"/>
     </defs>
     <use xlink:href="#DejaVuSans-6d"/>
     <use xlink:href="#DejaVuSans-65" transform="translate(97.412109 0)"/>
     <use xlink:href="#DejaVuSans-61" transform="translate(158.935547 0)"/>
     <use xlink:href="#DejaVuSans-6e" transform="translate(220.214844 0)"/>
     <use xlink:href="#DejaVuSans-5f" transform="translate(283.59375 0)"/>
     <use xlink:href="#DejaVuSans-73" transform="translate(333.59375 0)"/>
     <use xlink:href="#DejaVuSans-63" transform="translate(385.693359 0)"/>
     <use xlink:href="#DejaVuSans-6f" transform="translate(440.673828 0)"/>
     <use xlink:href="#DejaVuSans-72" transform="translate(501.855469 0)"/>
     <use xlink:href="#DejaVuSans-65" transform="translate(540.71875 0)"/>
     <use xlink:href="#DejaVuSans-20" transform="translate(602.242188 0)"/>
     <use xlink:href="#DejaVuSans-64" transform="translate(634.029297 0)"/>
     <use xlink:href="#DejaVuSans-69" transform="translate(697.505859 0)"/>
     <use xlink:href="#DejaVuSans-73" transform="translate(725.289062 0)"/>
     <use xlink:href="#DejaVuSans-74" transform="translate(777.388672 0)"/>
     <use xlink:href="#DejaVuSans-72" transform="translate(816.597656 0)"/>
     <use xlink:href="#DejaVuSans-69" transform="translate(857.710938 0)"/>
     <use xlink:href="#DejaVuSans-62" transform="translate(885.494141 0)"/>
     <use xlink:href="#DejaVuSans-75" transform="translate(948.970703 0)"/>
     <use xlink:href="#DejaVuSans-74" transform="translate(1012.349609 0)"/>
     <use xlink:href="#DejaVuSans-69" transform="translate(1051.558594 0)"/>
     <use xlink:href="#DejaVuSans-6f" transform="translate(1079.341797 0)"/>
     <use xlink:href="#DejaVuSans-6e" transform="translate(1140.523438 0)"/>
     <use xlink:href="#DejaVuSans-20" transform="translate(1203.902344 0)"/>
     <use xlink:href="#DejaVuSans-62" transform="translate(1235.689453 0)"/>
     <use xlink:href="#DejaVuSans-79" transform="translate(1299.166016 0)"/>
     <use xlink:href="#DejaVuSans-20" transform="translate(1358.345703 0)"/>
     <use xlink:href="#DejaVuSans-6e" transform="translate(1390.132812 0)"/>
     <use xlink:href="#DejaVuSans-5f" transform="translate(1453.511719 0)"/>
     <use xlink:href="#DejaVuSans-65" transform="translate(1503.511719 0)"/>
     <use xlink:href="#DejaVuSans-73" transform="translate(1565.035156 0)"/>
     <use xlink:href="#DejaVuSans-74" transform="translate(1617.134766 0)"/>
     <use xlink:href="#DejaVuSans-69" transform="translate(1656.34375 0)"/>
     <use xlink:href="#DejaVuSans-6d" transform="translate(1684.126953 0)"/>
     <use xlink:href="#DejaVuSans-61" transform="translate(1781.539062 0)"/>
     <use xlink:href="#DejaVuSans-74" transform="translate(1842.818359 0)"/>
     <use xlink:href="#DejaVuSans-6f" transform="translate(1882.027344 0)"/>
     <use xlink:href="#DejaVuSans-72" transform="translate(1943.208984 0)"/>
     <use xlink:href="#DejaVuSans-73" transform="translate(1984.322266 0)"/>
    </g>
   </g>
  </g>
 </g>
 <defs>
  <clipPath id="pf82febd598">
   <rect x="50.14375" y="22.318125" width="1231.09" height="352.583156"/>
  </clipPath>
 </defs>
</svg>
