<?xml version="1.0" encoding="utf-8" standalone="no"?>
<!DOCTYPE svg PUBLIC "-//W3C//DTD SVG 1.1//EN"
  "http://www.w3.org/Graphics/SVG/1.1/DTD/svg11.dtd">
<svg xmlns:xlink="http://www.w3.org/1999/xlink" width="568.763125pt" height="423.132636pt" viewBox="0 0 568.763125 423.132636" xmlns="http://www.w3.org/2000/svg" version="1.1">
 <metadata>
  <rdf:RDF xmlns:dc="http://purl.org/dc/elements/1.1/" xmlns:cc="http://creativecommons.org/ns#" xmlns:rdf="http://www.w3.org/1999/02/22-rdf-syntax-ns#">
   <cc:Work>
    <dc:type rdf:resource="http://purl.org/dc/dcmitype/StillImage"/>
    <dc:date>2026-05-06T10:28:01.696433</dc:date>
    <dc:format>image/svg+xml</dc:format>
    <dc:creator>
     <cc:Agent>
      <dc:title>Matplotlib v3.10.1, https://matplotlib.org/</dc:title>
     </cc:Agent>
    </dc:creator>
   </cc:Work>
  </rdf:RDF>
 </metadata>
 <defs>
  <style type="text/css">*{stroke-linejoin: round; stroke-linecap: butt}</style>
 </defs>
 <g id="figure_1">
  <g id="patch_1">
   <path d="M 0 423.132636 
L 568.763125 423.132636 
L 568.763125 0 
L 0 0 
z
" style="fill: #ffffff"/>
  </g>
  <g id="axes_1">
   <g id="patch_2">
    <path d="M 56.784375 383.912076 
L 561.563125 383.912076 
L 561.563125 22.318125 
L 56.784375 22.318125 
z
" style="fill: #ffffff"/>
   </g>
   <g id="FillBetweenPolyCollection_1">
    <path d="M 126.179072 334.44537 
L 125.05661 334.44537 
L 125.086876 331.458591 
L 125.168229 328.471811 
L 125.277073 325.485032 
L 125.386673 322.498253 
L 125.477481 319.511473 
L 125.541559 316.524694 
L 125.580727 313.537915 
L 125.601639 310.551135 
L 125.611346 307.564356 
L 125.614887 304.577577 
L 125.614581 301.590797 
L 125.609806 298.604018 
L 125.596313 295.617238 
L 125.564837 292.630459 
L 125.499649 289.64368 
L 125.378281 286.6569 
L 125.173207 283.670121 
L 124.854433 280.683342 
L 124.390242 277.696562 
L 123.744672 274.709783 
L 122.875313 271.723004 
L 121.738656 268.736224 
L 120.305345 265.749445 
L 118.57565 262.762666 
L 116.579825 259.775886 
L 114.360529 256.789107 
L 111.956129 253.802327 
L 109.409103 250.815548 
L 106.800111 247.828769 
L 104.27648 244.841989 
L 102.038933 241.85521 
L 100.282419 238.868431 
L 99.125953 235.881651 
L 98.574308 232.894872 
L 98.526487 229.908093 
L 98.813751 226.921313 
L 99.241665 223.934534 
L 99.6223 220.947755 
L 99.79361 217.960975 
L 99.627266 214.974196 
L 99.031823 211.987416 
L 97.96409 209.000637 
L 96.454341 206.013858 
L 94.628707 203.027078 
L 92.697779 200.040299 
L 90.898768 197.05352 
L 89.419866 194.06674 
L 88.357496 191.079961 
L 87.731378 188.093182 
L 87.532727 185.106402 
L 87.758975 182.119623 
L 88.411817 179.132844 
L 89.469139 176.146064 
L 90.848143 173.159285 
L 92.36523 170.172505 
L 93.703344 167.185726 
L 94.424368 164.198947 
L 94.072344 161.212167 
L 92.367035 158.225388 
L 89.407693 155.238609 
L 85.760307 152.251829 
L 82.33984 149.26505 
L 80.109321 146.278271 
L 79.728864 143.291491 
L 81.321675 140.304712 
L 84.45785 137.317932 
L 88.339698 134.331153 
L 92.08379 131.344374 
L 94.978832 128.357594 
L 96.640597 125.370815 
L 97.042513 122.384036 
L 96.442208 119.397256 
L 95.244958 116.410477 
L 93.851658 113.423698 
L 92.536413 110.436918 
L 91.386735 107.450139 
L 90.319867 104.46336 
L 89.166863 101.47658 
L 87.79464 98.489801 
L 86.218257 95.503021 
L 84.651939 92.516242 
L 83.469289 89.529463 
L 83.086207 86.542683 
L 83.820122 83.555904 
L 85.789004 80.569125 
L 88.885232 77.582345 
L 92.814642 74.595566 
L 97.166667 71.608787 
L 101.491536 68.622007 
L 105.379572 65.635228 
L 108.535538 62.648449 
L 110.826848 59.661669 
L 112.290202 56.67489 
L 113.106509 53.68811 
L 113.562932 50.701331 
L 114.000181 47.714552 
L 114.729334 44.727772 
L 115.929327 41.740993 
L 117.578069 38.754214 
L 133.657613 38.754214 
L 133.657613 38.754214 
L 135.306355 41.740993 
L 136.506348 44.727772 
L 137.235501 47.714552 
L 137.672749 50.701331 
L 138.129173 53.68811 
L 138.945479 56.67489 
L 140.408833 59.661669 
L 142.700144 62.648449 
L 145.85611 65.635228 
L 149.744146 68.622007 
L 154.069014 71.608787 
L 158.42104 74.595566 
L 162.35045 77.582345 
L 165.446677 80.569125 
L 167.41556 83.555904 
L 168.149475 86.542683 
L 167.766393 89.529463 
L 166.583742 92.516242 
L 165.017425 95.503021 
L 163.441041 98.489801 
L 162.068819 101.47658 
L 160.915815 104.46336 
L 159.848947 107.450139 
L 158.699269 110.436918 
L 157.384023 113.423698 
L 155.990724 116.410477 
L 154.793474 119.397256 
L 154.193169 122.384036 
L 154.595084 125.370815 
L 156.25685 128.357594 
L 159.151892 131.344374 
L 162.895983 134.331153 
L 166.777832 137.317932 
L 169.914007 140.304712 
L 171.506818 143.291491 
L 171.126361 146.278271 
L 168.895842 149.26505 
L 165.475374 152.251829 
L 161.827989 155.238609 
L 158.868647 158.225388 
L 157.163338 161.212167 
L 156.811314 164.198947 
L 157.532338 167.185726 
L 158.870452 170.172505 
L 160.387539 173.159285 
L 161.766543 176.146064 
L 162.823865 179.132844 
L 163.476707 182.119623 
L 163.702955 185.106402 
L 163.504304 188.093182 
L 162.878186 191.079961 
L 161.815815 194.06674 
L 160.336914 197.05352 
L 158.537903 200.040299 
L 156.606975 203.027078 
L 154.781341 206.013858 
L 153.271592 209.000637 
L 152.203859 211.987416 
L 151.608416 214.974196 
L 151.442072 217.960975 
L 151.613382 220.947755 
L 151.994017 223.934534 
L 152.421931 226.921313 
L 152.709195 229.908093 
L 152.661374 232.894872 
L 152.109729 235.881651 
L 150.953263 238.868431 
L 149.196749 241.85521 
L 146.959202 244.841989 
L 144.435571 247.828769 
L 141.826579 250.815548 
L 139.279553 253.802327 
L 136.875153 256.789107 
L 134.655856 259.775886 
L 132.660032 262.762666 
L 130.930336 265.749445 
L 129.497026 268.736224 
L 128.360369 271.723004 
L 127.49101 274.709783 
L 126.84544 277.696562 
L 126.381249 280.683342 
L 126.062475 283.670121 
L 125.857401 286.6569 
L 125.736033 289.64368 
L 125.670845 292.630459 
L 125.639369 295.617238 
L 125.625876 298.604018 
L 125.621101 301.590797 
L 125.620795 304.577577 
L 125.624336 307.564356 
L 125.634042 310.551135 
L 125.654955 313.537915 
L 125.694122 316.524694 
L 125.758201 319.511473 
L 125.849008 322.498253 
L 125.958608 325.485032 
L 126.067453 328.471811 
L 126.148805 331.458591 
L 126.179072 334.44537 
z
" clip-path="url(#pfbee4623d7)" style="fill: #4682b4; fill-opacity: 0.7"/>
   </g>
   <g id="FillBetweenPolyCollection_2">
    <path d="M 310.156985 334.44537 
L 308.190515 334.44537 
L 308.248396 331.458591 
L 308.402384 328.471811 
L 308.604222 325.485032 
L 308.801297 322.498253 
L 308.958011 319.511473 
L 309.063064 316.524694 
L 309.123446 313.537915 
L 309.153473 310.551135 
L 309.166378 307.564356 
L 309.170807 304.577577 
L 309.170589 301.590797 
L 309.165077 298.604018 
L 309.148188 295.617238 
L 309.105624 292.630459 
L 309.011448 289.64368 
L 308.826794 286.6569 
L 308.503322 283.670121 
L 307.990163 280.683342 
L 307.237674 277.696562 
L 306.192205 274.709783 
L 304.788473 271.723004 
L 302.95922 268.736224 
L 300.672827 265.749445 
L 297.974522 262.762666 
L 294.982249 259.775886 
L 291.817393 256.789107 
L 288.519969 253.802327 
L 285.033882 250.815548 
L 281.296972 247.828769 
L 277.372339 244.841989 
L 273.510168 241.85521 
L 270.084001 238.868431 
L 267.448237 235.881651 
L 265.814878 232.894872 
L 265.210021 229.908093 
L 265.500998 226.921313 
L 266.451874 223.934534 
L 267.771666 220.947755 
L 269.135595 217.960975 
L 270.184411 214.974196 
L 270.547216 211.987416 
L 269.946892 209.000637 
L 268.38029 206.013858 
L 266.251255 203.027078 
L 264.298404 200.040299 
L 263.284773 197.05352 
L 263.621285 194.06674 
L 265.184107 191.079961 
L 267.4499 188.093182 
L 269.828438 185.106402 
L 271.946522 182.119623 
L 273.727433 179.132844 
L 275.293979 176.146064 
L 276.818744 173.159285 
L 278.407074 170.172505 
L 280.025378 167.185726 
L 281.473886 164.198947 
L 282.43395 161.212167 
L 282.616102 158.225388 
L 281.964774 155.238609 
L 280.797096 152.251829 
L 279.754049 149.26505 
L 279.549517 146.278271 
L 280.646006 143.291491 
L 283.047419 140.304712 
L 286.321736 137.317932 
L 289.813546 134.331153 
L 292.904164 131.344374 
L 295.190052 128.357594 
L 296.535571 125.370815 
L 297.030012 122.384036 
L 296.900779 119.397256 
L 296.420687 116.410477 
L 295.829412 113.423698 
L 295.280665 110.436918 
L 294.822306 107.450139 
L 294.410937 104.46336 
L 293.956106 101.47658 
L 293.381985 98.489801 
L 292.685187 95.503021 
L 291.962587 92.516242 
L 291.392507 89.529463 
L 291.175399 86.542683 
L 291.462442 83.555904 
L 292.306545 80.569125 
L 293.654207 77.582345 
L 295.369635 74.595566 
L 297.268539 71.608787 
L 299.149614 68.622007 
L 300.827921 65.635228 
L 302.170928 62.648449 
L 303.122763 59.661669 
L 303.70427 56.67489 
L 303.997202 53.68811 
L 304.128974 50.701331 
L 304.25598 47.714552 
L 304.528193 44.727772 
L 305.034993 41.740993 
L 305.764215 38.754214 
L 312.583285 38.754214 
L 312.583285 38.754214 
L 313.312507 41.740993 
L 313.819307 44.727772 
L 314.09152 47.714552 
L 314.218526 50.701331 
L 314.350298 53.68811 
L 314.64323 56.67489 
L 315.224737 59.661669 
L 316.176572 62.648449 
L 317.519579 65.635228 
L 319.197886 68.622007 
L 321.078961 71.608787 
L 322.977865 74.595566 
L 324.693293 77.582345 
L 326.040955 80.569125 
L 326.885058 83.555904 
L 327.172101 86.542683 
L 326.954993 89.529463 
L 326.384913 92.516242 
L 325.662313 95.503021 
L 324.965515 98.489801 
L 324.391394 101.47658 
L 323.936563 104.46336 
L 323.525194 107.450139 
L 323.066835 110.436918 
L 322.518088 113.423698 
L 321.926813 116.410477 
L 321.446721 119.397256 
L 321.317488 122.384036 
L 321.811929 125.370815 
L 323.157448 128.357594 
L 325.443336 131.344374 
L 328.533954 134.331153 
L 332.025764 137.317932 
L 335.300081 140.304712 
L 337.701494 143.291491 
L 338.797983 146.278271 
L 338.593451 149.26505 
L 337.550404 152.251829 
L 336.382726 155.238609 
L 335.731398 158.225388 
L 335.91355 161.212167 
L 336.873614 164.198947 
L 338.322122 167.185726 
L 339.940426 170.172505 
L 341.528756 173.159285 
L 343.053521 176.146064 
L 344.620067 179.132844 
L 346.400978 182.119623 
L 348.519062 185.106402 
L 350.8976 188.093182 
L 353.163393 191.079961 
L 354.726215 194.06674 
L 355.062727 197.05352 
L 354.049096 200.040299 
L 352.096245 203.027078 
L 349.96721 206.013858 
L 348.400608 209.000637 
L 347.800284 211.987416 
L 348.163089 214.974196 
L 349.211905 217.960975 
L 350.575834 220.947755 
L 351.895626 223.934534 
L 352.846502 226.921313 
L 353.137479 229.908093 
L 352.532622 232.894872 
L 350.899263 235.881651 
L 348.263499 238.868431 
L 344.837332 241.85521 
L 340.975161 244.841989 
L 337.050528 247.828769 
L 333.313618 250.815548 
L 329.827531 253.802327 
L 326.530107 256.789107 
L 323.365251 259.775886 
L 320.372978 262.762666 
L 317.674673 265.749445 
L 315.38828 268.736224 
L 313.559027 271.723004 
L 312.155295 274.709783 
L 311.109826 277.696562 
L 310.357337 280.683342 
L 309.844178 283.670121 
L 309.520706 286.6569 
L 309.336052 289.64368 
L 309.241876 292.630459 
L 309.199312 295.617238 
L 309.182423 298.604018 
L 309.176911 301.590797 
L 309.176693 304.577577 
L 309.181122 307.564356 
L 309.194027 310.551135 
L 309.224054 313.537915 
L 309.284436 316.524694 
L 309.389489 319.511473 
L 309.546203 322.498253 
L 309.743278 325.485032 
L 309.945116 328.471811 
L 310.099104 331.458591 
L 310.156985 334.44537 
z
" clip-path="url(#pfbee4623d7)" style="fill: #4682b4; fill-opacity: 0.7"/>
   </g>
   <g id="FillBetweenPolyCollection_3">
    <path d="M 493.231649 367.475988 
L 492.227669 367.475988 
L 492.260182 364.155566 
L 492.344491 360.835144 
L 492.445268 357.514722 
L 492.523615 354.1943 
L 492.551854 350.873878 
L 492.520592 347.553456 
L 492.440245 344.233034 
L 492.339321 340.912612 
L 492.256958 337.59219 
L 492.2278 334.271768 
L 492.265428 330.951346 
L 492.356095 327.630924 
L 492.468259 324.310502 
L 492.570616 320.99008 
L 492.645521 317.669658 
L 492.690947 314.349236 
L 492.7141 311.028814 
L 492.723833 307.708392 
L 492.725925 304.38797 
L 492.720513 301.067548 
L 492.698034 297.747126 
L 492.629918 294.426705 
L 492.453392 291.106283 
L 492.05791 287.785861 
L 491.291348 284.465439 
L 490.004116 281.145017 
L 488.123682 277.824595 
L 485.710567 274.504173 
L 482.93658 271.183751 
L 479.982618 267.863329 
L 476.932611 264.542907 
L 473.748119 261.222485 
L 470.327664 257.902063 
L 466.587023 254.581641 
L 462.519666 251.261219 
L 458.250867 247.940797 
L 454.085688 244.620375 
L 450.492245 241.299953 
L 447.968794 237.979531 
L 446.840682 234.659109 
L 447.109443 231.338687 
L 448.439683 228.018265 
L 450.271413 224.697843 
L 451.988938 221.377421 
L 453.080279 218.056999 
L 453.245136 214.736578 
L 452.442978 211.416156 
L 450.903889 208.095734 
L 449.109993 204.775312 
L 447.700676 201.45489 
L 447.258202 198.134468 
L 448.046587 194.814046 
L 449.886016 191.493624 
L 452.279313 188.173202 
L 454.700314 184.85278 
L 456.830553 181.532358 
L 458.613165 178.211936 
L 460.157365 174.891514 
L 461.598416 171.571092 
L 462.98474 168.25067 
L 464.224467 164.930248 
L 465.117413 161.609826 
L 465.479172 158.289404 
L 465.306035 154.968982 
L 464.876373 151.64856 
L 464.69611 148.328138 
L 465.286193 145.007716 
L 466.924044 141.687294 
L 469.495924 138.366872 
L 472.545296 135.046451 
L 475.473053 131.726029 
L 477.767705 128.405607 
L 479.159515 125.085185 
L 479.657219 121.764763 
L 479.482236 118.444341 
L 478.94489 115.123919 
L 478.31644 111.803497 
L 477.743457 108.483075 
L 477.229842 105.162653 
L 476.68577 101.842231 
L 476.019998 98.521809 
L 475.233201 95.201387 
L 474.462968 91.880965 
L 473.950941 88.560543 
L 473.947186 85.240121 
L 474.606312 81.919699 
L 475.931181 78.599277 
L 477.780989 75.278855 
L 479.91879 71.958433 
L 482.069021 68.638011 
L 483.976962 65.317589 
L 485.465893 61.997167 
L 486.472388 58.676745 
L 487.045958 55.356323 
L 487.325956 52.035902 
L 487.510498 48.71548 
L 487.806807 45.395058 
L 488.35534 42.074636 
L 489.164037 38.754214 
L 496.295281 38.754214 
L 496.295281 38.754214 
L 497.103978 42.074636 
L 497.652512 45.395058 
L 497.94882 48.71548 
L 498.133362 52.035902 
L 498.41336 55.356323 
L 498.98693 58.676745 
L 499.993425 61.997167 
L 501.482357 65.317589 
L 503.390298 68.638011 
L 505.540528 71.958433 
L 507.678329 75.278855 
L 509.528137 78.599277 
L 510.853006 81.919699 
L 511.512132 85.240121 
L 511.508377 88.560543 
L 510.99635 91.880965 
L 510.226117 95.201387 
L 509.43932 98.521809 
L 508.773548 101.842231 
L 508.229477 105.162653 
L 507.715861 108.483075 
L 507.142878 111.803497 
L 506.514428 115.123919 
L 505.977082 118.444341 
L 505.802099 121.764763 
L 506.299803 125.085185 
L 507.691613 128.405607 
L 509.986265 131.726029 
L 512.914022 135.046451 
L 515.963395 138.366872 
L 518.535274 141.687294 
L 520.173125 145.007716 
L 520.763208 148.328138 
L 520.582945 151.64856 
L 520.153283 154.968982 
L 519.980146 158.289404 
L 520.341905 161.609826 
L 521.234851 164.930248 
L 522.474579 168.25067 
L 523.860902 171.571092 
L 525.301953 174.891514 
L 526.846153 178.211936 
L 528.628765 181.532358 
L 530.759004 184.85278 
L 533.180005 188.173202 
L 535.573302 191.493624 
L 537.412731 194.814046 
L 538.201116 198.134468 
L 537.758642 201.45489 
L 536.349325 204.775312 
L 534.555429 208.095734 
L 533.01634 211.416156 
L 532.214183 214.736578 
L 532.37904 218.056999 
L 533.47038 221.377421 
L 535.187905 224.697843 
L 537.019635 228.018265 
L 538.349875 231.338687 
L 538.618636 234.659109 
L 537.490525 237.979531 
L 534.967073 241.299953 
L 531.37363 244.620375 
L 527.208451 247.940797 
L 522.939652 251.261219 
L 518.872295 254.581641 
L 515.131654 257.902063 
L 511.711199 261.222485 
L 508.526707 264.542907 
L 505.4767 267.863329 
L 502.522738 271.183751 
L 499.748752 274.504173 
L 497.335636 277.824595 
L 495.455203 281.145017 
L 494.16797 284.465439 
L 493.401408 287.785861 
L 493.005927 291.106283 
L 492.8294 294.426705 
L 492.761284 297.747126 
L 492.738805 301.067548 
L 492.733393 304.38797 
L 492.735485 307.708392 
L 492.745218 311.028814 
L 492.768372 314.349236 
L 492.813797 317.669658 
L 492.888702 320.99008 
L 492.991059 324.310502 
L 493.103223 327.630924 
L 493.19389 330.951346 
L 493.231519 334.271768 
L 493.20236 337.59219 
L 493.119997 340.912612 
L 493.019073 344.233034 
L 492.938727 347.553456 
L 492.907464 350.873878 
L 492.935703 354.1943 
L 493.01405 357.514722 
L 493.114827 360.835144 
L 493.199136 364.155566 
L 493.231649 367.475988 
z
" clip-path="url(#pfbee4623d7)" style="fill: #4682b4; fill-opacity: 0.7"/>
   </g>
   <g id="matplotlib.axis_1">
    <g id="xtick_1">
     <g id="line2d_1">
      <defs>
       <path id="mc30088ab2f" d="M 0 0 
L 0 3.5 
" style="stroke: #000000; stroke-width: 0.8"/>
      </defs>
      <g>
       <use xlink:href="#mc30088ab2f" x="125.617841" y="383.912076" style="stroke: #000000; stroke-width: 0.8"/>
      </g>
     </g>
     <g id="text_1">
      <!-- 1 -->
      <g transform="translate(119.648313 400.78395) rotate(-45) scale(0.1 -0.1)">
       <defs>
        <path id="DejaVuSans-31" d="M 794 531 
L 1825 531 
L 1825 4091 
L 703 3866 
L 703 4441 
L 1819 4666 
L 2450 4666 
L 2450 531 
L 3481 531 
L 3481 0 
L 794 0 
L 794 531 
z
" transform="scale(0.015625)"/>
       </defs>
       <use xlink:href="#DejaVuSans-31"/>
      </g>
     </g>
    </g>
    <g id="xtick_2">
     <g id="line2d_2">
      <g>
       <use xlink:href="#mc30088ab2f" x="309.17375" y="383.912076" style="stroke: #000000; stroke-width: 0.8"/>
      </g>
     </g>
     <g id="text_2">
      <!-- 2 -->
      <g transform="translate(303.204222 400.78395) rotate(-45) scale(0.1 -0.1)">
       <defs>
        <path id="DejaVuSans-32" d="M 1228 531 
L 3431 531 
L 3431 0 
L 469 0 
L 469 531 
Q 828 903 1448 1529 
Q 2069 2156 2228 2338 
Q 2531 2678 2651 2914 
Q 2772 3150 2772 3378 
Q 2772 3750 2511 3984 
Q 2250 4219 1831 4219 
Q 1534 4219 1204 4116 
Q 875 4013 500 3803 
L 500 4441 
Q 881 4594 1212 4672 
Q 1544 4750 1819 4750 
Q 2544 4750 2975 4387 
Q 3406 4025 3406 3419 
Q 3406 3131 3298 2873 
Q 3191 2616 2906 2266 
Q 2828 2175 2409 1742 
Q 1991 1309 1228 531 
z
" transform="scale(0.015625)"/>
       </defs>
       <use xlink:href="#DejaVuSans-32"/>
      </g>
     </g>
    </g>
    <g id="xtick_3">
     <g id="line2d_3">
      <g>
       <use xlink:href="#mc30088ab2f" x="492.729659" y="383.912076" style="stroke: #000000; stroke-width: 0.8"/>
      </g>
     </g>
     <g id="text_3">
      <!-- 3 -->
      <g transform="translate(486.760131 400.78395) rotate(-45) scale(0.1 -0.1)">
       <defs>
        <path id="DejaVuSans-33" d="M 2597 2516 
Q 3050 2419 3304 2112 
Q 3559 1806 3559 1356 
Q 3559 666 3084 287 
Q 2609 -91 1734 -91 
Q 1441 -91 1130 -33 
Q 819 25 488 141 
L 488 750 
Q 750 597 1062 519 
Q 1375 441 1716 441 
Q 2309 441 2620 675 
Q 2931 909 2931 1356 
Q 2931 1769 2642 2001 
Q 2353 2234 1838 2234 
L 1294 2234 
L 1294 2753 
L 1863 2753 
Q 2328 2753 2575 2939 
Q 2822 3125 2822 3475 
Q 2822 3834 2567 4026 
Q 2313 4219 1838 4219 
Q 1578 4219 1281 4162 
Q 984 4106 628 3988 
L 628 4550 
Q 988 4650 1302 4700 
Q 1616 4750 1894 4750 
Q 2613 4750 3031 4423 
Q 3450 4097 3450 3541 
Q 3450 3153 3228 2886 
Q 3006 2619 2597 2516 
z
" transform="scale(0.015625)"/>
       </defs>
       <use xlink:href="#DejaVuSans-33"/>
      </g>
     </g>
    </g>
    <g id="text_4">
     <!-- p -->
     <g transform="translate(305.999531 413.852949) scale(0.1 -0.1)">
      <defs>
       <path id="DejaVuSans-70" d="M 1159 525 
L 1159 -1331 
L 581 -1331 
L 581 3500 
L 1159 3500 
L 1159 2969 
Q 1341 3281 1617 3432 
Q 1894 3584 2278 3584 
Q 2916 3584 3314 3078 
Q 3713 2572 3713 1747 
Q 3713 922 3314 415 
Q 2916 -91 2278 -91 
Q 1894 -91 1617 61 
Q 1341 213 1159 525 
z
M 3116 1747 
Q 3116 2381 2855 2742 
Q 2594 3103 2138 3103 
Q 1681 3103 1420 2742 
Q 1159 2381 1159 1747 
Q 1159 1113 1420 752 
Q 1681 391 2138 391 
Q 2594 391 2855 752 
Q 3116 1113 3116 1747 
z
" transform="scale(0.015625)"/>
      </defs>
      <use xlink:href="#DejaVuSans-70"/>
     </g>
    </g>
   </g>
   <g id="matplotlib.axis_2">
    <g id="ytick_1">
     <g id="line2d_4">
      <defs>
       <path id="mebc6ca2e6f" d="M 0 0 
L -3.5 0 
" style="stroke: #000000; stroke-width: 0.8"/>
      </defs>
      <g>
       <use xlink:href="#mebc6ca2e6f" x="56.784375" y="377.876814" style="stroke: #000000; stroke-width: 0.8"/>
      </g>
     </g>
     <g id="text_5">
      <!-- 0.575 -->
      <g transform="translate(21.15625 381.676032) scale(0.1 -0.1)">
       <defs>
        <path id="DejaVuSans-30" d="M 2034 4250 
Q 1547 4250 1301 3770 
Q 1056 3291 1056 2328 
Q 1056 1369 1301 889 
Q 1547 409 2034 409 
Q 2525 409 2770 889 
Q 3016 1369 3016 2328 
Q 3016 3291 2770 3770 
Q 2525 4250 2034 4250 
z
M 2034 4750 
Q 2819 4750 3233 4129 
Q 3647 3509 3647 2328 
Q 3647 1150 3233 529 
Q 2819 -91 2034 -91 
Q 1250 -91 836 529 
Q 422 1150 422 2328 
Q 422 3509 836 4129 
Q 1250 4750 2034 4750 
z
" transform="scale(0.015625)"/>
        <path id="DejaVuSans-2e" d="M 684 794 
L 1344 794 
L 1344 0 
L 684 0 
L 684 794 
z
" transform="scale(0.015625)"/>
        <path id="DejaVuSans-35" d="M 691 4666 
L 3169 4666 
L 3169 4134 
L 1269 4134 
L 1269 2991 
Q 1406 3038 1543 3061 
Q 1681 3084 1819 3084 
Q 2600 3084 3056 2656 
Q 3513 2228 3513 1497 
Q 3513 744 3044 326 
Q 2575 -91 1722 -91 
Q 1428 -91 1123 -41 
Q 819 9 494 109 
L 494 744 
Q 775 591 1075 516 
Q 1375 441 1709 441 
Q 2250 441 2565 725 
Q 2881 1009 2881 1497 
Q 2881 1984 2565 2268 
Q 2250 2553 1709 2553 
Q 1456 2553 1204 2497 
Q 953 2441 691 2322 
L 691 4666 
z
" transform="scale(0.015625)"/>
        <path id="DejaVuSans-37" d="M 525 4666 
L 3525 4666 
L 3525 4397 
L 1831 0 
L 1172 0 
L 2766 4134 
L 525 4134 
L 525 4666 
z
" transform="scale(0.015625)"/>
       </defs>
       <use xlink:href="#DejaVuSans-30"/>
       <use xlink:href="#DejaVuSans-2e" transform="translate(63.623047 0)"/>
       <use xlink:href="#DejaVuSans-35" transform="translate(95.410156 0)"/>
       <use xlink:href="#DejaVuSans-37" transform="translate(159.033203 0)"/>
       <use xlink:href="#DejaVuSans-35" transform="translate(222.65625 0)"/>
      </g>
     </g>
    </g>
    <g id="ytick_2">
     <g id="line2d_5">
      <g>
       <use xlink:href="#mebc6ca2e6f" x="56.784375" y="336.194031" style="stroke: #000000; stroke-width: 0.8"/>
      </g>
     </g>
     <g id="text_6">
      <!-- 0.600 -->
      <g transform="translate(21.15625 339.993249) scale(0.1 -0.1)">
       <defs>
        <path id="DejaVuSans-36" d="M 2113 2584 
Q 1688 2584 1439 2293 
Q 1191 2003 1191 1497 
Q 1191 994 1439 701 
Q 1688 409 2113 409 
Q 2538 409 2786 701 
Q 3034 994 3034 1497 
Q 3034 2003 2786 2293 
Q 2538 2584 2113 2584 
z
M 3366 4563 
L 3366 3988 
Q 3128 4100 2886 4159 
Q 2644 4219 2406 4219 
Q 1781 4219 1451 3797 
Q 1122 3375 1075 2522 
Q 1259 2794 1537 2939 
Q 1816 3084 2150 3084 
Q 2853 3084 3261 2657 
Q 3669 2231 3669 1497 
Q 3669 778 3244 343 
Q 2819 -91 2113 -91 
Q 1303 -91 875 529 
Q 447 1150 447 2328 
Q 447 3434 972 4092 
Q 1497 4750 2381 4750 
Q 2619 4750 2861 4703 
Q 3103 4656 3366 4563 
z
" transform="scale(0.015625)"/>
       </defs>
       <use xlink:href="#DejaVuSans-30"/>
       <use xlink:href="#DejaVuSans-2e" transform="translate(63.623047 0)"/>
       <use xlink:href="#DejaVuSans-36" transform="translate(95.410156 0)"/>
       <use xlink:href="#DejaVuSans-30" transform="translate(159.033203 0)"/>
       <use xlink:href="#DejaVuSans-30" transform="translate(222.65625 0)"/>
      </g>
     </g>
    </g>
    <g id="ytick_3">
     <g id="line2d_6">
      <g>
       <use xlink:href="#mebc6ca2e6f" x="56.784375" y="294.511248" style="stroke: #000000; stroke-width: 0.8"/>
      </g>
     </g>
     <g id="text_7">
      <!-- 0.625 -->
      <g transform="translate(21.15625 298.310466) scale(0.1 -0.1)">
       <use xlink:href="#DejaVuSans-30"/>
       <use xlink:href="#DejaVuSans-2e" transform="translate(63.623047 0)"/>
       <use xlink:href="#DejaVuSans-36" transform="translate(95.410156 0)"/>
       <use xlink:href="#DejaVuSans-32" transform="translate(159.033203 0)"/>
       <use xlink:href="#DejaVuSans-35" transform="translate(222.65625 0)"/>
      </g>
     </g>
    </g>
    <g id="ytick_4">
     <g id="line2d_7">
      <g>
       <use xlink:href="#mebc6ca2e6f" x="56.784375" y="252.828465" style="stroke: #000000; stroke-width: 0.8"/>
      </g>
     </g>
     <g id="text_8">
      <!-- 0.650 -->
      <g transform="translate(21.15625 256.627683) scale(0.1 -0.1)">
       <use xlink:href="#DejaVuSans-30"/>
       <use xlink:href="#DejaVuSans-2e" transform="translate(63.623047 0)"/>
       <use xlink:href="#DejaVuSans-36" transform="translate(95.410156 0)"/>
       <use xlink:href="#DejaVuSans-35" transform="translate(159.033203 0)"/>
       <use xlink:href="#DejaVuSans-30" transform="translate(222.65625 0)"/>
      </g>
     </g>
    </g>
    <g id="ytick_5">
     <g id="line2d_8">
      <g>
       <use xlink:href="#mebc6ca2e6f" x="56.784375" y="211.145682" style="stroke: #000000; stroke-width: 0.8"/>
      </g>
     </g>
     <g id="text_9">
      <!-- 0.675 -->
      <g transform="translate(21.15625 214.9449) scale(0.1 -0.1)">
       <use xlink:href="#DejaVuSans-30"/>
       <use xlink:href="#DejaVuSans-2e" transform="translate(63.623047 0)"/>
       <use xlink:href="#DejaVuSans-36" transform="translate(95.410156 0)"/>
       <use xlink:href="#DejaVuSans-37" transform="translate(159.033203 0)"/>
       <use xlink:href="#DejaVuSans-35" transform="translate(222.65625 0)"/>
      </g>
     </g>
    </g>
    <g id="ytick_6">
     <g id="line2d_9">
      <g>
       <use xlink:href="#mebc6ca2e6f" x="56.784375" y="169.462898" style="stroke: #000000; stroke-width: 0.8"/>
      </g>
     </g>
     <g id="text_10">
      <!-- 0.700 -->
      <g transform="translate(21.15625 173.262117) scale(0.1 -0.1)">
       <use xlink:href="#DejaVuSans-30"/>
       <use xlink:href="#DejaVuSans-2e" transform="translate(63.623047 0)"/>
       <use xlink:href="#DejaVuSans-37" transform="translate(95.410156 0)"/>
       <use xlink:href="#DejaVuSans-30" transform="translate(159.033203 0)"/>
       <use xlink:href="#DejaVuSans-30" transform="translate(222.65625 0)"/>
      </g>
     </g>
    </g>
    <g id="ytick_7">
     <g id="line2d_10">
      <g>
       <use xlink:href="#mebc6ca2e6f" x="56.784375" y="127.780115" style="stroke: #000000; stroke-width: 0.8"/>
      </g>
     </g>
     <g id="text_11">
      <!-- 0.725 -->
      <g transform="translate(21.15625 131.579334) scale(0.1 -0.1)">
       <use xlink:href="#DejaVuSans-30"/>
       <use xlink:href="#DejaVuSans-2e" transform="translate(63.623047 0)"/>
       <use xlink:href="#DejaVuSans-37" transform="translate(95.410156 0)"/>
       <use xlink:href="#DejaVuSans-32" transform="translate(159.033203 0)"/>
       <use xlink:href="#DejaVuSans-35" transform="translate(222.65625 0)"/>
      </g>
     </g>
    </g>
    <g id="ytick_8">
     <g id="line2d_11">
      <g>
       <use xlink:href="#mebc6ca2e6f" x="56.784375" y="86.097332" style="stroke: #000000; stroke-width: 0.8"/>
      </g>
     </g>
     <g id="text_12">
      <!-- 0.750 -->
      <g transform="translate(21.15625 89.896551) scale(0.1 -0.1)">
       <use xlink:href="#DejaVuSans-30"/>
       <use xlink:href="#DejaVuSans-2e" transform="translate(63.623047 0)"/>
       <use xlink:href="#DejaVuSans-37" transform="translate(95.410156 0)"/>
       <use xlink:href="#DejaVuSans-35" transform="translate(159.033203 0)"/>
       <use xlink:href="#DejaVuSans-30" transform="translate(222.65625 0)"/>
      </g>
     </g>
    </g>
    <g id="ytick_9">
     <g id="line2d_12">
      <g>
       <use xlink:href="#mebc6ca2e6f" x="56.784375" y="44.414549" style="stroke: #000000; stroke-width: 0.8"/>
      </g>
     </g>
     <g id="text_13">
      <!-- 0.775 -->
      <g transform="translate(21.15625 48.213768) scale(0.1 -0.1)">
       <use xlink:href="#DejaVuSans-30"/>
       <use xlink:href="#DejaVuSans-2e" transform="translate(63.623047 0)"/>
       <use xlink:href="#DejaVuSans-37" transform="translate(95.410156 0)"/>
       <use xlink:href="#DejaVuSans-37" transform="translate(159.033203 0)"/>
       <use xlink:href="#DejaVuSans-35" transform="translate(222.65625 0)"/>
      </g>
     </g>
    </g>
    <g id="text_14">
     <!-- f1_weighted.mean -->
     <g transform="translate(14.798438 249.433851) rotate(-90) scale(0.1 -0.1)">
      <defs>
       <path id="DejaVuSans-66" d="M 2375 4863 
L 2375 4384 
L 1825 4384 
Q 1516 4384 1395 4259 
Q 1275 4134 1275 3809 
L 1275 3500 
L 2222 3500 
L 2222 3053 
L 1275 3053 
L 1275 0 
L 697 0 
L 697 3053 
L 147 3053 
L 147 3500 
L 697 3500 
L 697 3744 
Q 697 4328 969 4595 
Q 1241 4863 1831 4863 
L 2375 4863 
z
" transform="scale(0.015625)"/>
       <path id="DejaVuSans-5f" d="M 3263 -1063 
L 3263 -1509 
L -63 -1509 
L -63 -1063 
L 3263 -1063 
z
" transform="scale(0.015625)"/>
       <path id="DejaVuSans-77" d="M 269 3500 
L 844 3500 
L 1563 769 
L 2278 3500 
L 2956 3500 
L 3675 769 
L 4391 3500 
L 4966 3500 
L 4050 0 
L 3372 0 
L 2619 2869 
L 1863 0 
L 1184 0 
L 269 3500 
z
" transform="scale(0.015625)"/>
       <path id="DejaVuSans-65" d="M 3597 1894 
L 3597 1613 
L 953 1613 
Q 991 1019 1311 708 
Q 1631 397 2203 397 
Q 2534 397 2845 478 
Q 3156 559 3463 722 
L 3463 178 
Q 3153 47 2828 -22 
Q 2503 -91 2169 -91 
Q 1331 -91 842 396 
Q 353 884 353 1716 
Q 353 2575 817 3079 
Q 1281 3584 2069 3584 
Q 2775 3584 3186 3129 
Q 3597 2675 3597 1894 
z
M 3022 2063 
Q 3016 2534 2758 2815 
Q 2500 3097 2075 3097 
Q 1594 3097 1305 2825 
Q 1016 2553 972 2059 
L 3022 2063 
z
" transform="scale(0.015625)"/>
       <path id="DejaVuSans-69" d="M 603 3500 
L 1178 3500 
L 1178 0 
L 603 0 
L 603 3500 
z
M 603 4863 
L 1178 4863 
L 1178 4134 
L 603 4134 
L 603 4863 
z
" transform="scale(0.015625)"/>
       <path id="DejaVuSans-67" d="M 2906 1791 
Q 2906 2416 2648 2759 
Q 2391 3103 1925 3103 
Q 1463 3103 1205 2759 
Q 947 2416 947 1791 
Q 947 1169 1205 825 
Q 1463 481 1925 481 
Q 2391 481 2648 825 
Q 2906 1169 2906 1791 
z
M 3481 434 
Q 3481 -459 3084 -895 
Q 2688 -1331 1869 -1331 
Q 1566 -1331 1297 -1286 
Q 1028 -1241 775 -1147 
L 775 -588 
Q 1028 -725 1275 -790 
Q 1522 -856 1778 -856 
Q 2344 -856 2625 -561 
Q 2906 -266 2906 331 
L 2906 616 
Q 2728 306 2450 153 
Q 2172 0 1784 0 
Q 1141 0 747 490 
Q 353 981 353 1791 
Q 353 2603 747 3093 
Q 1141 3584 1784 3584 
Q 2172 3584 2450 3431 
Q 2728 3278 2906 2969 
L 2906 3500 
L 3481 3500 
L 3481 434 
z
" transform="scale(0.015625)"/>
       <path id="DejaVuSans-68" d="M 3513 2113 
L 3513 0 
L 2938 0 
L 2938 2094 
Q 2938 2591 2744 2837 
Q 2550 3084 2163 3084 
Q 1697 3084 1428 2787 
Q 1159 2491 1159 1978 
L 1159 0 
L 581 0 
L 581 4863 
L 1159 4863 
L 1159 2956 
Q 1366 3272 1645 3428 
Q 1925 3584 2291 3584 
Q 2894 3584 3203 3211 
Q 3513 2838 3513 2113 
z
" transform="scale(0.015625)"/>
       <path id="DejaVuSans-74" d="M 1172 4494 
L 1172 3500 
L 2356 3500 
L 2356 3053 
L 1172 3053 
L 1172 1153 
Q 1172 725 1289 603 
Q 1406 481 1766 481 
L 2356 481 
L 2356 0 
L 1766 0 
Q 1100 0 847 248 
Q 594 497 594 1153 
L 594 3053 
L 172 3053 
L 172 3500 
L 594 3500 
L 594 4494 
L 1172 4494 
z
" transform="scale(0.015625)"/>
       <path id="DejaVuSans-64" d="M 2906 2969 
L 2906 4863 
L 3481 4863 
L 3481 0 
L 2906 0 
L 2906 525 
Q 2725 213 2448 61 
Q 2172 -91 1784 -91 
Q 1150 -91 751 415 
Q 353 922 353 1747 
Q 353 2572 751 3078 
Q 1150 3584 1784 3584 
Q 2172 3584 2448 3432 
Q 2725 3281 2906 2969 
z
M 947 1747 
Q 947 1113 1208 752 
Q 1469 391 1925 391 
Q 2381 391 2643 752 
Q 2906 1113 2906 1747 
Q 2906 2381 2643 2742 
Q 2381 3103 1925 3103 
Q 1469 3103 1208 2742 
Q 947 2381 947 1747 
z
" transform="scale(0.015625)"/>
       <path id="DejaVuSans-6d" d="M 3328 2828 
Q 3544 3216 3844 3400 
Q 4144 3584 4550 3584 
Q 5097 3584 5394 3201 
Q 5691 2819 5691 2113 
L 5691 0 
L 5113 0 
L 5113 2094 
Q 5113 2597 4934 2840 
Q 4756 3084 4391 3084 
Q 3944 3084 3684 2787 
Q 3425 2491 3425 1978 
L 3425 0 
L 2847 0 
L 2847 2094 
Q 2847 2600 2669 2842 
Q 2491 3084 2119 3084 
Q 1678 3084 1418 2786 
Q 1159 2488 1159 1978 
L 1159 0 
L 581 0 
L 581 3500 
L 1159 3500 
L 1159 2956 
Q 1356 3278 1631 3431 
Q 1906 3584 2284 3584 
Q 2666 3584 2933 3390 
Q 3200 3197 3328 2828 
z
" transform="scale(0.015625)"/>
       <path id="DejaVuSans-61" d="M 2194 1759 
Q 1497 1759 1228 1600 
Q 959 1441 959 1056 
Q 959 750 1161 570 
Q 1363 391 1709 391 
Q 2188 391 2477 730 
Q 2766 1069 2766 1631 
L 2766 1759 
L 2194 1759 
z
M 3341 1997 
L 3341 0 
L 2766 0 
L 2766 531 
Q 2569 213 2275 61 
Q 1981 -91 1556 -91 
Q 1019 -91 701 211 
Q 384 513 384 1019 
Q 384 1609 779 1909 
Q 1175 2209 1959 2209 
L 2766 2209 
L 2766 2266 
Q 2766 2663 2505 2880 
Q 2244 3097 1772 3097 
Q 1472 3097 1187 3025 
Q 903 2953 641 2809 
L 641 3341 
Q 956 3463 1253 3523 
Q 1550 3584 1831 3584 
Q 2591 3584 2966 3190 
Q 3341 2797 3341 1997 
z
" transform="scale(0.015625)"/>
       <path id="DejaVuSans-6e" d="M 3513 2113 
L 3513 0 
L 2938 0 
L 2938 2094 
Q 2938 2591 2744 2837 
Q 2550 3084 2163 3084 
Q 1697 3084 1428 2787 
Q 1159 2491 1159 1978 
L 1159 0 
L 581 0 
L 581 3500 
L 1159 3500 
L 1159 2956 
Q 1366 3272 1645 3428 
Q 1925 3584 2291 3584 
Q 2894 3584 3203 3211 
Q 3513 2838 3513 2113 
z
" transform="scale(0.015625)"/>
      </defs>
      <use xlink:href="#DejaVuSans-66"/>
      <use xlink:href="#DejaVuSans-31" transform="translate(35.205078 0)"/>
      <use xlink:href="#DejaVuSans-5f" transform="translate(98.828125 0)"/>
      <use xlink:href="#DejaVuSans-77" transform="translate(148.828125 0)"/>
      <use xlink:href="#DejaVuSans-65" transform="translate(230.615234 0)"/>
      <use xlink:href="#DejaVuSans-69" transform="translate(292.138672 0)"/>
      <use xlink:href="#DejaVuSans-67" transform="translate(319.921875 0)"/>
      <use xlink:href="#DejaVuSans-68" transform="translate(383.398438 0)"/>
      <use xlink:href="#DejaVuSans-74" transform="translate(446.777344 0)"/>
      <use xlink:href="#DejaVuSans-65" transform="translate(485.986328 0)"/>
      <use xlink:href="#DejaVuSans-64" transform="translate(547.509766 0)"/>
      <use xlink:href="#DejaVuSans-2e" transform="translate(610.986328 0)"/>
      <use xlink:href="#DejaVuSans-6d" transform="translate(642.773438 0)"/>
      <use xlink:href="#DejaVuSans-65" transform="translate(740.185547 0)"/>
      <use xlink:href="#DejaVuSans-61" transform="translate(801.708984 0)"/>
      <use xlink:href="#DejaVuSans-6e" transform="translate(862.988281 0)"/>
     </g>
    </g>
   </g>
   <g id="LineCollection_1">
    <path d="M 102.673352 150.206309 
L 148.56233 150.206309 
" clip-path="url(#pfbee4623d7)" style="fill: none; stroke: #1f77b4; stroke-width: 1.5"/>
    <path d="M 286.229261 179.005962 
L 332.118239 179.005962 
" clip-path="url(#pfbee4623d7)" style="fill: none; stroke: #1f77b4; stroke-width: 1.5"/>
    <path d="M 469.78517 181.801981 
L 515.674148 181.801981 
" clip-path="url(#pfbee4623d7)" style="fill: none; stroke: #1f77b4; stroke-width: 1.5"/>
   </g>
   <g id="LineCollection_2">
    <path d="M 102.673352 38.754214 
L 148.56233 38.754214 
" clip-path="url(#pfbee4623d7)" style="fill: none; stroke: #1f77b4; stroke-width: 1.5"/>
    <path d="M 286.229261 38.754214 
L 332.118239 38.754214 
" clip-path="url(#pfbee4623d7)" style="fill: none; stroke: #1f77b4; stroke-width: 1.5"/>
    <path d="M 469.78517 38.754214 
L 515.674148 38.754214 
" clip-path="url(#pfbee4623d7)" style="fill: none; stroke: #1f77b4; stroke-width: 1.5"/>
   </g>
   <g id="LineCollection_3">
    <path d="M 102.673352 334.44537 
L 148.56233 334.44537 
" clip-path="url(#pfbee4623d7)" style="fill: none; stroke: #1f77b4; stroke-width: 1.5"/>
    <path d="M 286.229261 334.44537 
L 332.118239 334.44537 
" clip-path="url(#pfbee4623d7)" style="fill: none; stroke: #1f77b4; stroke-width: 1.5"/>
    <path d="M 469.78517 367.475988 
L 515.674148 367.475988 
" clip-path="url(#pfbee4623d7)" style="fill: none; stroke: #1f77b4; stroke-width: 1.5"/>
   </g>
   <g id="LineCollection_4">
    <path d="M 125.617841 334.44537 
L 125.617841 38.754214 
" clip-path="url(#pfbee4623d7)" style="fill: none; stroke: #1f77b4; stroke-width: 1.5"/>
    <path d="M 309.17375 334.44537 
L 309.17375 38.754214 
" clip-path="url(#pfbee4623d7)" style="fill: none; stroke: #1f77b4; stroke-width: 1.5"/>
    <path d="M 492.729659 367.475988 
L 492.729659 38.754214 
" clip-path="url(#pfbee4623d7)" style="fill: none; stroke: #1f77b4; stroke-width: 1.5"/>
   </g>
   <g id="LineCollection_5">
    <path d="M 102.673352 146.480022 
L 148.56233 146.480022 
" clip-path="url(#pfbee4623d7)" style="fill: none; stroke: #1f77b4; stroke-width: 1.5"/>
    <path d="M 286.229261 190.237571 
L 332.118239 190.237571 
" clip-path="url(#pfbee4623d7)" style="fill: none; stroke: #1f77b4; stroke-width: 1.5"/>
    <path d="M 469.78517 193.882942 
L 515.674148 193.882942 
" clip-path="url(#pfbee4623d7)" style="fill: none; stroke: #1f77b4; stroke-width: 1.5"/>
   </g>
   <g id="patch_3">
    <path d="M 56.784375 383.912076 
L 56.784375 22.318125 
" style="fill: none; stroke: #000000; stroke-width: 0.8; stroke-linejoin: miter; stroke-linecap: square"/>
   </g>
   <g id="patch_4">
    <path d="M 561.563125 383.912076 
L 561.563125 22.318125 
" style="fill: none; stroke: #000000; stroke-width: 0.8; stroke-linejoin: miter; stroke-linecap: square"/>
   </g>
   <g id="patch_5">
    <path d="M 56.784375 383.912076 
L 561.563125 383.912076 
" style="fill: none; stroke: #000000; stroke-width: 0.8; stroke-linejoin: miter; stroke-linecap: square"/>
   </g>
   <g id="patch_6">
    <path d="M 56.784375 22.318125 
L 561.563125 22.318125 
" style="fill: none; stroke: #000000; stroke-width: 0.8; stroke-linejoin: miter; stroke-linecap: square"/>
   </g>
   <g id="text_15">
    <!-- f1_weighted.mean distribution by p -->
    <g transform="translate(202.509687 16.318125) scale(0.12 -0.12)">
     <defs>
      <path id="DejaVuSans-20" transform="scale(0.015625)"/>
      <path id="DejaVuSans-73" d="M 2834 3397 
L 2834 2853 
Q 2591 2978 2328 3040 
Q 2066 3103 1784 3103 
Q 1356 3103 1142 2972 
Q 928 2841 928 2578 
Q 928 2378 1081 2264 
Q 1234 2150 1697 2047 
L 1894 2003 
Q 2506 1872 2764 1633 
Q 3022 1394 3022 966 
Q 3022 478 2636 193 
Q 2250 -91 1575 -91 
Q 1294 -91 989 -36 
Q 684 19 347 128 
L 347 722 
Q 666 556 975 473 
Q 1284 391 1588 391 
Q 1994 391 2212 530 
Q 2431 669 2431 922 
Q 2431 1156 2273 1281 
Q 2116 1406 1581 1522 
L 1381 1569 
Q 847 1681 609 1914 
Q 372 2147 372 2553 
Q 372 3047 722 3315 
Q 1072 3584 1716 3584 
Q 2034 3584 2315 3537 
Q 2597 3491 2834 3397 
z
" transform="scale(0.015625)"/>
      <path id="DejaVuSans-72" d="M 2631 2963 
Q 2534 3019 2420 3045 
Q 2306 3072 2169 3072 
Q 1681 3072 1420 2755 
Q 1159 2438 1159 1844 
L 1159 0 
L 581 0 
L 581 3500 
L 1159 3500 
L 1159 2956 
Q 1341 3275 1631 3429 
Q 1922 3584 2338 3584 
Q 2397 3584 2469 3576 
Q 2541 3569 2628 3553 
L 2631 2963 
z
" transform="scale(0.015625)"/>
      <path id="DejaVuSans-62" d="M 3116 1747 
Q 3116 2381 2855 2742 
Q 2594 3103 2138 3103 
Q 1681 3103 1420 2742 
Q 1159 2381 1159 1747 
Q 1159 1113 1420 752 
Q 1681 391 2138 391 
Q 2594 391 2855 752 
Q 3116 1113 3116 1747 
z
M 1159 2969 
Q 1341 3281 1617 3432 
Q 1894 3584 2278 3584 
Q 2916 3584 3314 3078 
Q 3713 2572 3713 1747 
Q 3713 922 3314 415 
Q 2916 -91 2278 -91 
Q 1894 -91 1617 61 
Q 1341 213 1159 525 
L 1159 0 
L 581 0 
L 581 4863 
L 1159 4863 
L 1159 2969 
z
" transform="scale(0.015625)"/>
      <path id="DejaVuSans-75" d="M 544 1381 
L 544 3500 
L 1119 3500 
L 1119 1403 
Q 1119 906 1312 657 
Q 1506 409 1894 409 
Q 2359 409 2629 706 
Q 2900 1003 2900 1516 
L 2900 3500 
L 3475 3500 
L 3475 0 
L 2900 0 
L 2900 538 
Q 2691 219 2414 64 
Q 2138 -91 1772 -91 
Q 1169 -91 856 284 
Q 544 659 544 1381 
z
M 1991 3584 
L 1991 3584 
z
" transform="scale(0.015625)"/>
      <path id="DejaVuSans-6f" d="M 1959 3097 
Q 1497 3097 1228 2736 
Q 959 2375 959 1747 
Q 959 1119 1226 758 
Q 1494 397 1959 397 
Q 2419 397 2687 759 
Q 2956 1122 2956 1747 
Q 2956 2369 2687 2733 
Q 2419 3097 1959 3097 
z
M 1959 3584 
Q 2709 3584 3137 3096 
Q 3566 2609 3566 1747 
Q 3566 888 3137 398 
Q 2709 -91 1959 -91 
Q 1206 -91 779 398 
Q 353 888 353 1747 
Q 353 2609 779 3096 
Q 1206 3584 1959 3584 
z
" transform="scale(0.015625)"/>
      <path id="DejaVuSans-79" d="M 2059 -325 
Q 1816 -950 1584 -1140 
Q 1353 -1331 966 -1331 
L 506 -1331 
L 506 -850 
L 844 -850 
Q 1081 -850 1212 -737 
Q 1344 -625 1503 -206 
L 1606 56 
L 191 3500 
L 800 3500 
L 1894 763 
L 2988 3500 
L 3597 3500 
L 2059 -325 
z
" transform="scale(0.015625)"/>
     </defs>
     <use xlink:href="#DejaVuSans-66"/>
     <use xlink:href="#DejaVuSans-31" transform="translate(35.205078 0)"/>
     <use xlink:href="#DejaVuSans-5f" transform="translate(98.828125 0)"/>
     <use xlink:href="#DejaVuSans-77" transform="translate(148.828125 0)"/>
     <use xlink:href="#DejaVuSans-65" transform="translate(230.615234 0)"/>
     <use xlink:href="#DejaVuSans-69" transform="translate(292.138672 0)"/>
     <use xlink:href="#DejaVuSans-67" transform="translate(319.921875 0)"/>
     <use xlink:href="#DejaVuSans-68" transform="translate(383.398438 0)"/>
     <use xlink:href="#DejaVuSans-74" transform="translate(446.777344 0)"/>
     <use xlink:href="#DejaVuSans-65" transform="translate(485.986328 0)"/>
     <use xlink:href="#DejaVuSans-64" transform="translate(547.509766 0)"/>
     <use xlink:href="#DejaVuSans-2e" transform="translate(610.986328 0)"/>
     <use xlink:href="#DejaVuSans-6d" transform="translate(642.773438 0)"/>
     <use xlink:href="#DejaVuSans-65" transform="translate(740.185547 0)"/>
     <use xlink:href="#DejaVuSans-61" transform="translate(801.708984 0)"/>
     <use xlink:href="#DejaVuSans-6e" transform="translate(862.988281 0)"/>
     <use xlink:href="#DejaVuSans-20" transform="translate(926.367188 0)"/>
     <use xlink:href="#DejaVuSans-64" transform="translate(958.154297 0)"/>
     <use xlink:href="#DejaVuSans-69" transform="translate(1021.630859 0)"/>
     <use xlink:href="#DejaVuSans-73" transform="translate(1049.414062 0)"/>
     <use xlink:href="#DejaVuSans-74" transform="translate(1101.513672 0)"/>
     <use xlink:href="#DejaVuSans-72" transform="translate(1140.722656 0)"/>
     <use xlink:href="#DejaVuSans-69" transform="translate(1181.835938 0)"/>
     <use xlink:href="#DejaVuSans-62" transform="translate(1209.619141 0)"/>
     <use xlink:href="#DejaVuSans-75" transform="translate(1273.095703 0)"/>
     <use xlink:href="#DejaVuSans-74" transform="translate(1336.474609 0)"/>
     <use xlink:href="#DejaVuSans-69" transform="translate(1375.683594 0)"/>
     <use xlink:href="#DejaVuSans-6f" transform="translate(1403.466797 0)"/>
     <use xlink:href="#DejaVuSans-6e" transform="translate(1464.648438 0)"/>
     <use xlink:href="#DejaVuSans-20" transform="translate(1528.027344 0)"/>
     <use xlink:href="#DejaVuSans-62" transform="translate(1559.814453 0)"/>
     <use xlink:href="#DejaVuSans-79" transform="translate(1623.291016 0)"/>
     <use xlink:href="#DejaVuSans-20" transform="translate(1682.470703 0)"/>
     <use xlink:href="#DejaVuSans-70" transform="translate(1714.257812 0)"/>
    </g>
   </g>
  </g>
 </g>
 <defs>
  <clipPath id="pfbee4623d7">
   <rect x="56.784375" y="22.318125" width="504.77875" height="361.593951"/>
  </clipPath>
 </defs>
</svg>
